<svg width="21" height="25" viewBox="0 0 21 25" fill="none" xmlns="http://www.w3.org/2000/svg">
<g id="Group">
<path id="Vector" d="M7.27505 24.5C5.32506 24.5 3.97505 22.775 3.00006 21.275C0.525056 17.45 5.57303e-05 12.65 1.80006 9.875C3.00006 8 4.95006 6.875 6.82506 6.875C7.80006 6.875 8.62505 7.175 9.30005 7.4C9.82505 7.625 10.3501 7.775 10.8751 7.775C11.3251 7.775 11.7001 7.625 12.2251 7.4C12.9001 7.175 13.7251 6.875 14.8501 6.875C16.5001 6.875 18.2251 7.775 19.4251 9.275C19.5751 9.425 19.6501 9.65 19.5751 9.875C19.5001 10.1 19.4251 10.25 19.2001 10.4C17.8501 11.15 17.1001 12.5 17.2501 14C17.3251 15.575 18.3001 16.85 19.7251 17.375C19.9501 17.45 20.1001 17.6 20.1751 17.825C20.2501 18.05 20.2501 18.2 20.1751 18.425C19.6501 19.55 19.4251 20.075 18.7501 21.05C17.6251 22.7 16.2751 24.425 14.4751 24.425C13.6501 24.425 13.1251 24.2 12.6751 23.975C12.2251 23.75 11.7751 23.525 10.8751 23.525C10.0501 23.525 9.60005 23.75 9.07506 23.975C8.62505 24.275 8.10005 24.5 7.27505 24.5Z" fill="#30353E"/>
<path id="Vector_2" d="M10.2751 7.02499H10.1251C9.75008 7.02499 9.45008 6.72499 9.37508 6.42499C9.15008 5.14999 9.60008 3.64999 10.5751 2.44999C11.4751 1.32499 12.9751 0.574988 14.3251 0.424988C14.7001 0.424988 15.0751 0.649988 15.1501 1.09999C15.3751 2.44999 14.9251 3.87499 13.9501 5.07499C13.1251 6.27499 11.6251 7.02499 10.2751 7.02499Z" fill="#30353E"/>
</g>
</svg>
