<svg width="602" height="294" viewBox="0 0 602 294" fill="none" xmlns="http://www.w3.org/2000/svg">
<path d="M10.2 201.52V204.26L13.72 205.08V202.34L15.5 202.74V205.48L19 206.3V208.06L15.5 207.24V210.62L19 211.42V213.18L15.5 212.38V215.1L13.72 214.7V211.96L10.2 211.16V213.88L8.44 213.48V210.74L4.92 209.94V208.18L8.44 208.98V205.62L4.92 204.8V203.04L8.44 203.86V201.12L10.2 201.52ZM13.72 206.84L10.2 206.02V209.4L13.72 210.2V206.84ZM9.34 189.579C9.34 186.839 11.54 184.859 14.28 184.859C17 184.859 19.2 186.839 19.2 189.579V189.999C19.2 192.739 17 194.719 14.28 194.719C11.54 194.719 9.34 192.739 9.34 189.999V189.579ZM17.48 189.799C17.48 187.899 16.04 186.579 14.28 186.579C12.5 186.579 11.06 187.899 11.06 189.799C11.06 191.679 12.5 192.999 14.28 192.999C16.04 192.999 17.48 191.679 17.48 189.799ZM6.5 178.795C6.62 180.315 7.2 180.735 8.38 180.735H9.56V178.795H11.28V180.735H19V182.475H11.28V184.195H9.56V182.475H8.38C6.48 182.475 4.92 181.495 4.92 179.015V178.795H6.5ZM13.5 168.408C14.18 166.467 15.16 165.567 16.6 165.567C17.58 165.567 19.2 166.307 19.2 169.107C19.2 170.867 18.54 172.207 17.96 173.007L16.5 172.067C16.92 171.467 17.46 170.467 17.46 169.107C17.46 167.887 17.02 167.387 16.6 167.327C16.3 167.287 15.74 167.327 15.16 168.987C14.48 170.967 13.94 172.167 12.36 172.407C11.68 172.507 11.02 172.327 10.48 171.867C9.96 171.407 9.34 170.507 9.34 168.787C9.34 167.687 9.68 166.607 10.34 165.527C10.36 165.507 10.36 165.487 10.38 165.487L11.92 166.327C11.88 166.367 11.86 166.407 11.84 166.447C11.34 167.247 11.08 168.027 11.08 168.787C11.08 169.587 11.28 170.227 11.62 170.527C11.78 170.647 11.94 170.707 12.1 170.687C12.52 170.607 12.78 170.487 13.5 168.408ZM19 162.419V164.159H9.56V162.419H19ZM7.28 163.279C7.28 163.939 6.76 164.459 6.1 164.459C5.46 164.459 4.92 163.939 4.92 163.279C4.92 162.639 5.46 162.099 6.1 162.099C6.76 162.099 7.28 162.639 7.28 163.279ZM9.34 149.476C9.34 147.076 11.28 145.996 13.68 145.996H19V147.736H13.68C12.24 147.736 11.08 148.676 11.08 150.116C11.08 151.556 12.24 152.496 13.68 152.496H19V154.236H13.68C12.24 154.236 11.08 155.176 11.08 156.616C11.08 158.056 12.24 158.996 13.68 158.996H19V160.716H9.56V158.996H10.84C9.92 158.316 9.34 157.276 9.34 155.956C9.34 154.376 10.2 153.376 11.48 152.876C10.2 152.256 9.34 151.056 9.34 149.476ZM19 142.584V144.324H9.56V142.584H19ZM7.28 143.444C7.28 144.104 6.76 144.624 6.1 144.624C5.46 144.624 4.92 144.104 4.92 143.444C4.92 142.804 5.46 142.264 6.1 142.264C6.76 142.264 7.28 142.804 7.28 143.444ZM15.54 138.929C16.74 138.929 17.3 138.489 17.42 136.989H19V137.189C19 139.689 17.46 140.649 15.54 140.649H4.92V138.929H15.54ZM9.54 128.293V126.573H19V128.293H17.58C18.58 129.093 19.2 130.273 19.2 131.713C19.2 134.453 17 136.433 14.28 136.433C11.54 136.433 9.34 134.453 9.34 131.713C9.34 130.273 9.96 129.093 10.96 128.293H9.54ZM17.48 131.613C17.48 129.793 16.04 128.293 14.28 128.293C12.5 128.293 11.06 129.793 11.06 131.613C11.06 133.453 12.5 134.713 14.28 134.713C16.04 134.713 17.48 133.453 17.48 131.613ZM9.36 119.602C9.36 119.242 9.38 118.902 9.4 118.602L11.16 118.922C11.12 119.142 11.08 119.362 11.08 119.602C11.08 121.362 12.52 122.802 14.3 122.802H19V124.522H9.58V122.802H11.54C10.22 122.302 9.36 121.302 9.36 119.602ZM20.14 112.305H9.5V110.565H20.14C22.06 110.565 23.6 111.545 23.6 114.025V114.885H22.06C22.06 112.845 21.5 112.305 20.14 112.305ZM7.22 111.425C7.22 112.085 6.7 112.605 6.04 112.605C5.4 112.605 4.86 112.085 4.86 111.425C4.86 110.785 5.4 110.245 6.04 110.245C6.7 110.245 7.22 110.785 7.22 111.425ZM9.34 104.045C9.34 101.305 11.54 99.3245 14.28 99.3245C17 99.3245 19.2 101.305 19.2 104.045V104.465C19.2 107.205 17 109.185 14.28 109.185C11.54 109.185 9.34 107.205 9.34 104.465V104.045ZM17.48 104.265C17.48 102.365 16.04 101.045 14.28 101.045C12.5 101.045 11.06 102.365 11.06 104.265C11.06 106.145 12.5 107.465 14.28 107.465C16.04 107.465 17.48 106.145 17.48 104.265ZM9.34 92.583C9.34 89.843 11.54 87.863 14.28 87.863C17 87.863 19.2 89.843 19.2 92.583C19.2 94.023 18.58 95.203 17.58 96.003H19V97.723H4.9V96.003H10.96C9.96 95.203 9.34 94.023 9.34 92.583ZM17.48 92.683C17.48 90.843 16.04 89.583 14.28 89.583C12.5 89.583 11.06 90.843 11.06 92.683C11.06 94.503 12.5 96.003 14.28 96.003C16.04 96.003 17.48 94.503 17.48 92.683ZM13.5 82.3122C14.18 80.3722 15.16 79.4722 16.6 79.4722C17.58 79.4722 19.2 80.2122 19.2 83.0122C19.2 84.7722 18.54 86.1122 17.96 86.9122L16.5 85.9722C16.92 85.3722 17.46 84.3722 17.46 83.0122C17.46 81.7922 17.02 81.2922 16.6 81.2322C16.3 81.1922 15.74 81.2322 15.16 82.8922C14.48 84.8722 13.94 86.0722 12.36 86.3122C11.68 86.4122 11.02 86.2322 10.48 85.7722C9.96 85.3122 9.34 84.4122 9.34 82.6922C9.34 81.5922 9.68 80.5122 10.34 79.4322C10.36 79.4122 10.36 79.3922 10.38 79.3922L11.92 80.2322C11.88 80.2722 11.86 80.3122 11.84 80.3522C11.34 81.1522 11.08 81.9322 11.08 82.6922C11.08 83.4922 11.28 84.1322 11.62 84.4322C11.78 84.5522 11.94 84.6122 12.1 84.5922C12.52 84.5122 12.78 84.3922 13.5 82.3122Z" fill="#30353E"/>
<rect x="111" y="150" width="24" height="66" fill="#91B8FF"/>
<rect x="135" y="72" width="24" height="144" fill="#005AFF"/>
<rect x="159" y="32" width="24" height="184" fill="#005AFF"/>
<rect x="183" y="4" width="24" height="212" fill="#005AFF"/>
<rect x="207" width="24" height="216" fill="#005AFF"/>
<rect x="231" y="36" width="24" height="180" fill="#005AFF"/>
<rect x="255" y="61" width="24" height="155" fill="#005AFF"/>
<rect x="279" y="132" width="24" height="84" fill="#005AFF"/>
<rect x="303" y="99" width="24" height="117" fill="#005AFF"/>
<rect x="327" y="166" width="24" height="50" fill="#91B8FF"/>
<rect x="351" y="150" width="24" height="66" fill="#91B8FF"/>
<rect x="375" y="202" width="24" height="14" fill="#91B8FF"/>
<rect x="399" y="189" width="24" height="27" fill="#91B8FF"/>
<rect x="423" y="196" width="24" height="20" fill="#91B8FF"/>
<rect x="447" y="205" width="24" height="11" fill="#91B8FF"/>
<rect x="471" y="202" width="24" height="14" fill="#91B8FF"/>
<rect x="495" y="194" width="24" height="22" fill="#91B8FF"/>
<rect x="519" y="205" width="24" height="11" fill="#91B8FF"/>
<line x1="52" y1="215.5" x2="602" y2="215.5" stroke="#525966"/>
<path d="M127.64 235.84C130.24 235.84 132.34 237.94 132.34 240.52C132.34 243.12 130.24 245.22 127.64 245.22C125.48 245.22 123.66 243.76 123.12 241.8L124.46 241.62C124.92 242.96 126.16 243.92 127.64 243.92C129.5 243.92 131.02 242.4 131.02 240.54C131.02 238.66 129.5 237.14 127.64 237.14C126.38 237.14 125.3 237.82 124.72 238.84L124.52 238.76L123.28 238.26L124.56 230.94H131.54V232.22H125.66L124.86 236.76C125.64 236.18 126.6 235.84 127.64 235.84Z" fill="#30353E"/>
<path d="M213.44 243.7H221.02V245H211.94C211.92 243.12 212.84 241.34 214.38 240.22L218.36 237.2C219.1 236.66 219.52 235.92 219.52 235.02C219.52 233.34 218.12 231.98 216.4 231.98C215.02 231.98 213.88 232.84 213.44 234.04L212.14 233.74C212.7 231.98 214.4 230.68 216.4 230.68C218.86 230.68 220.86 232.64 220.86 235.02C220.86 236.16 220.32 237.24 219.4 238L215.26 241.12C214.36 241.72 213.72 242.66 213.44 243.7ZM229.006 237.02C230.446 237.78 231.426 239.2 231.426 240.86C231.426 243.26 229.326 245.22 226.746 245.22C224.166 245.22 222.086 243.26 222.086 240.86C222.086 239.2 223.046 237.78 224.486 237.02C223.526 236.4 222.886 235.36 222.886 234.2C222.886 232.26 224.606 230.7 226.746 230.7C228.886 230.7 230.626 232.26 230.626 234.2C230.626 235.36 229.986 236.4 229.006 237.02ZM224.206 234.24C224.206 235.48 225.346 236.48 226.746 236.48C228.146 236.48 229.286 235.48 229.286 234.24C229.286 233 228.146 232 226.746 232C225.346 232 224.206 233 224.206 234.24ZM226.746 243.92C228.606 243.92 230.106 242.52 230.106 240.8C230.106 239.08 228.606 237.68 226.746 237.68C224.906 237.68 223.406 239.08 223.406 240.8C223.406 242.52 224.906 243.92 226.746 243.92Z" fill="#30353E"/>
<path d="M315.64 235.84C318.24 235.84 320.34 237.94 320.34 240.52C320.34 243.12 318.24 245.22 315.64 245.22C313.48 245.22 311.66 243.76 311.12 241.8L312.46 241.62C312.92 242.96 314.16 243.92 315.64 243.92C317.5 243.92 319.02 242.4 319.02 240.54C319.02 238.66 317.5 237.14 315.64 237.14C314.38 237.14 313.3 237.82 312.72 238.84L312.52 238.76L311.28 238.26L312.56 230.94H319.54V232.22H313.66L312.86 236.76C313.64 236.18 314.6 235.84 315.64 235.84ZM327.108 230.72C329.888 230.72 332.308 233.12 332.308 237.96C332.308 242.82 329.888 245.22 327.108 245.22C324.348 245.22 321.928 242.82 321.928 237.96C321.928 233.12 324.348 230.72 327.108 230.72ZM327.108 243.9C329.108 243.9 330.888 242.1 330.888 237.96C330.888 233.84 329.108 232.04 327.108 232.04C325.128 232.04 323.328 233.84 323.328 237.96C323.328 242.1 325.128 243.9 327.108 243.9Z" fill="#30353E"/>
<path d="M411.56 230.92H420.52C420.52 231.78 420.34 232.62 419.98 233.38L414.54 245H413.08L419.02 232.22H411.56V230.92ZM427.592 237.02C429.032 237.76 430.012 239.2 430.012 240.86C430.012 243.26 427.912 245.22 425.332 245.22C423.092 245.22 421.232 243.76 420.772 241.8L422.112 241.64C422.512 242.96 423.792 243.92 425.332 243.92C427.192 243.92 428.692 242.52 428.692 240.8C428.692 239.08 427.192 237.68 425.332 237.68H424.852V236.48H425.332C426.732 236.48 427.872 235.48 427.872 234.24C427.872 233 426.732 232 425.332 232C423.972 232 422.872 232.92 422.792 234.1L421.492 233.82C421.712 232.06 423.332 230.7 425.332 230.7C427.472 230.7 429.212 232.26 429.212 234.2C429.212 235.36 428.572 236.4 427.592 237.02Z" fill="#30353E"/>
<path d="M516.92 231.28C518.66 232.24 519.92 234.46 519.92 237.96C519.92 242.82 517.5 245.22 514.72 245.22C512.94 245.22 511.3 244.22 510.36 242.22L511.74 241.9C512.46 243.26 513.54 243.9 514.72 243.9C516.7 243.9 518.46 242.12 518.5 238.06C517.66 239.28 516.28 240.08 514.72 240.08C512.18 240.08 510.12 237.98 510.12 235.4C510.12 232.82 512.18 230.72 514.72 230.72C514.78 230.72 514.82 230.72 514.88 230.72C514.98 230.72 515.1 230.74 515.2 230.74C515.32 230.76 515.44 230.78 515.56 230.8C515.6 230.8 515.62 230.8 515.66 230.82C515.8 230.84 515.92 230.88 516.06 230.92C516.08 230.92 516.08 230.92 516.1 230.92C516.22 230.98 516.36 231.02 516.5 231.08C516.64 231.14 516.78 231.2 516.9 231.28C516.9 231.28 516.9 231.28 516.92 231.28ZM514.76 238.8C516.58 238.8 518.06 237.28 518.04 235.4C518.02 233.52 516.52 232 514.68 232C512.86 232 511.38 233.52 511.4 235.4C511.42 237.28 512.92 238.8 514.76 238.8ZM526.052 235.84C528.652 235.84 530.752 237.94 530.752 240.52C530.752 243.12 528.652 245.22 526.052 245.22C523.892 245.22 522.072 243.76 521.532 241.8L522.872 241.62C523.332 242.96 524.572 243.92 526.052 243.92C527.912 243.92 529.432 242.4 529.432 240.54C529.432 238.66 527.912 237.14 526.052 237.14C524.792 237.14 523.712 237.82 523.132 238.84L522.932 238.76L521.692 238.26L522.972 230.94H529.952V232.22H524.072L523.272 236.76C524.052 236.18 525.012 235.84 526.052 235.84Z" fill="#30353E"/>
<path d="M259.58 279.34C261.96 279.34 263.46 281.28 263.46 283.68V289H261.74V283.68C261.74 282.24 260.58 281.08 259.14 281.08C257.7 281.08 256.54 282.24 256.54 283.68V289H254.82V274.92H256.54V280.84C257.22 279.92 258.26 279.34 259.58 279.34ZM270.033 279.34C272.773 279.34 274.753 281.54 274.753 284.28C274.753 287 272.773 289.2 270.033 289.2H269.613C266.873 289.2 264.893 287 264.893 284.28C264.893 281.54 266.873 279.34 269.613 279.34H270.033ZM269.813 287.48C271.713 287.48 273.033 286.04 273.033 284.28C273.033 282.5 271.713 281.06 269.813 281.06C267.933 281.06 266.613 282.5 266.613 284.28C266.613 286.04 267.933 287.48 269.813 287.48ZM283.094 279.54H284.814V289H283.094V287.7C282.414 288.62 281.374 289.2 280.054 289.2C277.674 289.2 276.174 287.28 276.174 284.88V279.54H277.894V284.88C277.894 286.32 279.054 287.48 280.494 287.48C281.934 287.48 283.094 286.32 283.094 284.88V279.54ZM291.788 279.36C292.148 279.36 292.488 279.38 292.788 279.4L292.468 281.16C292.248 281.12 292.028 281.08 291.788 281.08C290.028 281.08 288.588 282.52 288.588 284.3V289H286.868V279.58H288.588V281.54C289.088 280.22 290.088 279.36 291.788 279.36ZM295.485 285.54C295.485 286.74 295.925 287.3 297.425 287.42V289H297.225C294.725 289 293.765 287.46 293.765 285.54V274.92H295.485V285.54ZM305.018 279.5H306.898L300.958 293.6H299.078L301.058 288.92C300.678 288.54 300.358 288.08 300.118 287.52L296.758 279.52H298.618L301.718 286.84C301.758 286.94 301.798 287 301.818 287.08L305.018 279.5ZM318.118 279.36C318.478 279.36 318.818 279.38 319.118 279.4L318.798 281.16C318.578 281.12 318.358 281.08 318.118 281.08C316.358 281.08 314.918 282.52 314.918 284.3V289H313.198V279.58H314.918V281.54C315.418 280.22 316.418 279.36 318.118 279.36ZM327.427 279.54H329.147V289H327.427V287.58C326.627 288.58 325.447 289.2 324.007 289.2C321.267 289.2 319.287 287 319.287 284.28C319.287 281.54 321.267 279.34 324.007 279.34C325.447 279.34 326.627 279.96 327.427 280.96V279.54ZM324.107 287.48C325.927 287.48 327.427 286.04 327.427 284.28C327.427 282.5 325.927 281.06 324.107 281.06C322.267 281.06 321.007 282.5 321.007 284.28C321.007 286.04 322.267 287.48 324.107 287.48ZM335.757 281.28H333.817V285.54C333.817 286.74 334.237 287.3 335.757 287.42V289H335.537C333.057 289 332.077 287.46 332.077 285.54V281.28H330.357V279.56H332.077V274.92H333.817V279.56H335.757V281.28ZM341.342 279.34C344.062 279.34 346.062 281.54 346.062 284.28C346.062 284.56 346.022 284.86 345.982 285.14H338.462C338.782 286.48 339.862 287.48 341.342 287.48C342.302 287.48 343.102 287.04 343.622 286.36L344.862 287.58C344.022 288.58 342.782 289.2 341.342 289.2C338.602 289.2 336.622 287 336.622 284.28C336.622 281.54 338.602 279.34 341.342 279.34ZM338.462 283.4H344.202C343.882 282.06 342.802 281.06 341.342 281.06C339.862 281.06 338.782 282.06 338.462 283.4ZM357.236 274.38C355.836 274.38 354.696 275.52 354.696 276.94V286.5C354.696 287.9 355.836 289.04 357.236 289.04V290.8C354.856 290.8 352.936 288.88 352.936 286.5V276.94C352.936 274.56 354.856 272.62 357.236 272.62V274.38ZM367.402 274.92H369.162V283.9C369.162 286.84 366.782 289.2 363.862 289.2C360.922 289.2 358.562 286.84 358.562 283.9V274.92H360.322V283.9C360.322 285.86 361.902 287.44 363.862 287.44C365.802 287.44 367.402 285.86 367.402 283.9V274.92ZM376.945 281.24C379.705 282.24 381.005 283.62 380.985 285.64C380.985 286.96 379.945 289.2 376.025 289.2C373.545 289.22 371.665 288.32 370.465 287.5L371.405 286.04C372.385 286.72 373.965 287.5 376.025 287.5C378.385 287.5 379.145 286.48 379.225 285.64C379.285 285.04 379.225 283.88 376.325 282.86C373.465 281.84 371.685 281.06 371.365 278.86C371.225 277.94 371.505 277.02 372.165 276.28C372.805 275.56 374.085 274.7 376.505 274.7C378.105 274.7 379.705 275.22 381.285 276.22L380.425 277.74C380.405 277.7 380.365 277.68 380.325 277.66C379.025 276.84 377.745 276.42 376.505 276.42C375.125 276.42 374.065 276.76 373.505 277.4C373.185 277.74 373.045 278.18 373.105 278.62C373.265 279.64 373.805 280.14 376.945 281.24ZM387.273 274.94C391.153 274.94 394.313 278.08 394.313 281.98C394.313 285.86 391.153 289 387.273 289H382.953V274.94H387.273ZM387.273 287.24C390.193 287.24 392.553 284.88 392.553 281.96C392.553 279.06 390.193 276.7 387.273 276.7H384.713V287.24H387.273ZM394.402 272.62C396.782 272.62 398.702 274.56 398.702 276.94V286.48C398.702 288.88 396.782 290.8 394.402 290.8V289.04C395.802 289.04 396.942 287.9 396.942 286.48V276.94C396.942 275.52 395.802 274.38 394.402 274.38V272.62Z" fill="#30353E"/>
</svg>
