<svg width="60" height="60" viewBox="0 0 60 60" fill="none" xmlns="http://www.w3.org/2000/svg">
<path d="M50.3748 23.1127L45.2743 12.2074L47.0393 9.90785C49.111 7.20726 48.5992 3.32485 45.8987 1.25337C43.1982 -0.817962 39.3162 -0.307855 37.2459 2.39092L33.7959 6.88607L27.0469 6.26616C26.9038 6.25306 26.7597 6.273 26.6256 6.32444C26.4915 6.37588 26.371 6.45744 26.2734 6.56283L1.75808 33.0354C0.313323 34.5942 0.405824 37.0389 1.96527 38.486L8.32949 44.3754L8.17516 44.6733C7.16135 46.6302 7.92735 49.0463 9.88261 50.0593L27.5768 59.226C29.5338 60.2398 31.9505 59.4726 32.9644 57.5156L50.3581 23.9411C50.4241 23.8136 50.46 23.6725 50.463 23.5289C50.4659 23.3853 50.4357 23.2428 50.3748 23.1127ZM38.7336 3.53233C40.1746 1.65355 42.8765 1.29838 44.7575 2.74125C46.6377 4.18344 46.994 6.88657 45.5519 8.76655L44.3794 10.294L43.4169 8.23589C43.2731 7.92873 42.9785 7.73231 42.653 7.70237L42.6533 7.6995L36.0038 7.08877L38.7336 3.53233ZM3.23956 37.1107C2.4385 36.3675 2.39085 35.1111 3.13351 34.3098L27.3353 8.17567L35.5799 8.93267L26.236 10.6072C26.0945 10.6326 25.9608 10.6901 25.8452 10.7753C25.7295 10.8605 25.635 10.9712 25.5689 11.0988L9.22401 42.6487L3.23956 37.1107ZM31.2995 56.6533C30.7613 57.6921 29.4783 58.0995 28.4393 57.5613L10.7451 48.3945C9.70765 47.8571 9.30165 46.5747 9.83985 45.5358L27.0212 12.3713L42.0236 9.6829L43.0931 11.9696L41.0755 14.5979C40.9952 14.7017 40.9101 14.8017 40.8205 14.8976C40.525 14.5499 40.1645 14.2632 39.7593 14.0535C38.0285 13.1569 35.8908 13.8355 34.9941 15.5664C34.0983 17.2956 34.7776 19.4319 36.5084 20.3286C38.2377 21.2244 40.3733 20.5464 41.2691 18.8173C41.6059 18.1685 41.7321 17.4309 41.6303 16.707C41.9754 16.42 42.2879 16.096 42.5622 15.7407L43.9881 13.8831L48.4808 23.4887L31.2995 56.6533ZM39.6042 17.9547C39.1839 18.7659 38.1821 19.084 37.3709 18.6637C36.5582 18.2427 36.2387 17.2401 36.6589 16.4289C37.08 15.6161 38.084 15.2974 38.8967 15.7185C39.0287 15.7869 39.1461 15.8718 39.2507 15.9676C38.8661 16.1207 38.4615 16.2178 38.0493 16.256C37.8017 16.2786 37.5732 16.3987 37.4141 16.5898C37.255 16.7808 37.1783 17.0273 37.2009 17.2749C37.2235 17.5225 37.3436 17.751 37.5347 17.9101C37.7258 18.0692 37.9722 18.1459 38.2199 18.1233C38.7141 18.0775 39.201 17.9724 39.6701 17.8103C39.6504 17.859 39.6288 17.9072 39.6042 17.9547ZM33.1476 33.8768C33.0332 34.0975 33.0112 34.3547 33.0864 34.5917C33.1617 34.8287 33.328 35.0261 33.5487 35.1404C33.7695 35.2548 34.0267 35.2768 34.2637 35.2016C34.5006 35.1263 34.698 34.96 34.8124 34.7393C35.8554 32.7259 35.1209 30.2154 33.1931 28.7661L33.845 27.5077C34.0832 27.048 33.9037 26.4822 33.4439 26.244C32.9841 26.0058 32.4184 26.1855 32.1802 26.6452L31.5283 27.9036C29.2324 27.1647 26.7579 28.0128 25.7148 30.0261C24.2587 32.8369 25.8558 34.6031 27.383 35.905L24.8129 40.866C23.785 39.9474 23.4041 38.5626 23.9767 37.4573C24.0911 37.2365 24.1131 36.9794 24.0378 36.7424C23.9626 36.5054 23.7963 36.308 23.5755 36.1936C23.3548 36.0793 23.0976 36.0573 22.8606 36.1325C22.6236 36.2077 22.4262 36.374 22.3119 36.5948C21.2696 38.6066 22.0047 41.116 23.9327 42.565L23.2808 43.8233C23.1665 44.0441 23.1445 44.3012 23.2197 44.5382C23.295 44.7752 23.4613 44.9726 23.682 45.087C23.9028 45.2013 24.16 45.2233 24.3969 45.1481C24.6339 45.0729 24.8313 44.9066 24.9457 44.6858L25.5976 43.4275C27.8933 44.1667 30.3672 43.3197 31.4095 41.3078C32.8662 38.4959 31.2699 36.729 29.7424 35.4268L32.3129 30.4652C33.3406 31.384 33.7209 32.7702 33.1476 33.8768ZM27.3797 30.8886C27.953 29.782 29.3046 29.2931 30.648 29.6027L28.2711 34.1908C27.1019 33.1387 26.6412 32.3141 27.3797 30.8886ZM29.7446 40.4453C29.172 41.5507 27.821 42.0383 26.4778 41.7285L28.8544 37.141C30.0235 38.1933 30.4838 39.0185 29.7446 40.4453Z" fill="#30353E"/>
</svg>
