<svg width="29" height="29" viewBox="0 0 29 29" fill="none" xmlns="http://www.w3.org/2000/svg">
<g id="Group">
<path id="Vector" d="M8.25064 8.30585C9.85218 6.6908 12.0701 5.68862 14.5084 5.69098C16.7564 5.69317 18.8075 6.53718 20.3631 7.9251C20.586 8.12396 20.9437 8.11089 21.1549 7.89968L24.0089 5.04571C24.2413 4.81331 24.2349 4.43356 23.9933 4.21066C21.4496 1.86266 18.0337 0.445808 14.2863 0.501588C10.4977 0.557973 7.07057 2.13174 4.58099 4.6362C4.30341 4.91543 4.6281 8.29591 4.6281 8.29591C4.6281 8.29591 6.68796 9.88175 8.25064 8.30585Z" fill="url(#paint0_linear_6160_10325)"/>
<path id="Vector_2" d="M5.69154 14.4208C5.66958 16.8991 6.67099 19.1435 8.29829 20.757L7.04927 23.4524L4.62809 24.4272C2.08284 21.8957 0.505505 18.3924 0.500014 14.5207C0.494524 10.6759 2.05539 7.17703 4.58143 4.63672L8.25107 8.30637C6.68856 9.88205 5.71241 12.0413 5.69154 14.4208Z" fill="url(#paint1_linear_6160_10325)"/>
<path id="Vector_3" d="M20.7094 20.7637C19.1042 22.3542 16.8881 23.3242 14.4435 23.3087C12.0474 23.2935 9.87874 22.3214 8.29943 20.7559L4.62891 24.4264C7.15061 26.9342 10.6221 28.488 14.4566 28.4998C18.2989 28.5116 21.7934 26.9316 24.3356 24.39L23.2866 22.1469L20.7094 20.7637Z" fill="url(#paint2_linear_6160_10325)"/>
<path id="Vector_4" d="M28.5005 13.0623C28.5004 12.9297 28.4478 12.8026 28.3541 12.7089C28.2603 12.6152 28.1332 12.5625 28.0007 12.5625H14.9692C14.8504 12.5625 14.7366 12.6097 14.6526 12.6936C14.5686 12.7776 14.5215 12.8914 14.5215 13.0102V17.3189C14.5215 17.4377 14.5686 17.5515 14.6526 17.6355C14.7366 17.7194 14.8504 17.7666 14.9692 17.7666H21.3334C21.989 17.7666 22.396 18.482 22.0589 19.0441C21.6837 19.669 21.2321 20.2447 20.7145 20.7579C20.7126 20.7599 20.7113 20.7618 20.7093 20.7638L24.3361 24.3906C24.5074 24.2194 24.6811 24.048 24.8563 23.8763C27.1224 21.3632 28.5005 18.029 28.5005 14.3917V13.0623Z" fill="url(#paint3_linear_6160_10325)"/>
</g>
<defs>
<linearGradient id="paint0_linear_6160_10325" x1="4.46877" y1="4.75182" x2="24.1789" y2="4.75182" gradientUnits="userSpaceOnUse">
<stop stop-color="#FF637B"/>
<stop offset="1" stop-color="#F90217"/>
</linearGradient>
<linearGradient id="paint1_linear_6160_10325" x1="0.83294" y1="10.7602" x2="8.44609" y2="18.3734" gradientUnits="userSpaceOnUse">
<stop stop-color="#FFD833"/>
<stop offset="1" stop-color="#F2B631"/>
</linearGradient>
<linearGradient id="paint2_linear_6160_10325" x1="13.2946" y1="22.6234" x2="17.5424" y2="26.8712" gradientUnits="userSpaceOnUse">
<stop stop-color="#28A265"/>
<stop offset="1" stop-color="#28895E"/>
</linearGradient>
<linearGradient id="paint3_linear_6160_10325" x1="20.4839" y1="14.1527" x2="26.9994" y2="20.6682" gradientUnits="userSpaceOnUse">
<stop stop-color="#7FAEF4"/>
<stop offset="1" stop-color="#4C8DF1"/>
</linearGradient>
</defs>
</svg>
