<svg width="60" height="60" viewBox="0 0 60 60" fill="none" xmlns="http://www.w3.org/2000/svg">
<g id="Group">
<g id="Layer 2">
<g id="Layer 1">
<path id="Vector" d="M30 60C46.5685 60 60 46.5685 60 30C60 13.4315 46.5685 0 30 0C13.4315 0 0 13.4315 0 30C0 46.5685 13.4315 60 30 60Z" fill="#333333"/>
<path id="Vector_2" d="M29.9999 56.1761C44.4566 56.1761 56.1761 44.4566 56.1761 29.9999C56.1761 15.5432 44.4566 3.82373 29.9999 3.82373C15.5432 3.82373 3.82373 15.5432 3.82373 29.9999C3.82373 44.4566 15.5432 56.1761 29.9999 56.1761Z" fill="#5B5B5B"/>
<path id="Vector_3" d="M30 55.1543C43.8923 55.1543 55.1543 43.8923 55.1543 30C55.1543 16.1077 43.8923 4.8457 30 4.8457C16.1077 4.8457 4.8457 16.1077 4.8457 30C4.8457 43.8923 16.1077 55.1543 30 55.1543Z" fill="white"/>
<g id="Group_2">
<path id="Vector_4" d="M30 10.4298C29.7824 10.4298 29.5738 10.3434 29.4199 10.1895C29.2661 10.0357 29.1797 9.82705 29.1797 9.60949V7.00324C29.1986 6.79969 29.2928 6.61053 29.4439 6.47282C29.595 6.33512 29.792 6.25879 29.9965 6.25879C30.2009 6.25879 30.398 6.33512 30.549 6.47282C30.7001 6.61053 30.7944 6.79969 30.8133 7.00324V9.61535C30.8117 9.83068 30.7256 10.0368 30.5734 10.1891C30.4213 10.3415 30.2153 10.428 30 10.4298ZM30 53.8138C29.7824 53.8138 29.5738 53.7274 29.4199 53.5735C29.2661 53.4197 29.1797 53.211 29.1797 52.9935V50.3907C29.1797 50.1732 29.2661 49.9645 29.4199 49.8107C29.5738 49.6569 29.7824 49.5704 30 49.5704C30.2175 49.5704 30.4262 49.6569 30.58 49.8107C30.7339 49.9645 30.8203 50.1732 30.8203 50.3907V53.0028C30.8178 53.2188 30.7303 53.425 30.5767 53.5768C30.4232 53.7287 30.2159 53.8138 30 53.8138ZM50.3906 30.8204C50.173 30.8204 49.9644 30.734 49.8106 30.5802C49.6567 30.4263 49.5703 30.2177 49.5703 30.0001C49.5703 29.7826 49.6567 29.5739 49.8106 29.4201C49.9644 29.2662 50.173 29.1798 50.3906 29.1798H53.0027C53.2063 29.1987 53.3954 29.2929 53.5331 29.444C53.6708 29.5951 53.7472 29.7922 53.7472 29.9966C53.7472 30.201 53.6708 30.3981 53.5331 30.5492C53.3954 30.7003 53.2063 30.7945 53.0027 30.8134L50.3906 30.8204ZM7.00311 30.8204C6.88948 30.831 6.77489 30.8177 6.66668 30.7815C6.55847 30.7452 6.45902 30.6868 6.37467 30.6099C6.29033 30.533 6.22295 30.4394 6.17685 30.335C6.13075 30.2306 6.10693 30.1177 6.10693 30.0036C6.10693 29.8895 6.13075 29.7766 6.17685 29.6722C6.22295 29.5679 6.29033 29.4742 6.37467 29.3974C6.45902 29.3205 6.55847 29.262 6.66668 29.2258C6.77489 29.1895 6.88948 29.1763 7.00311 29.1868H9.61522C9.81877 29.2057 10.0079 29.3 10.1456 29.4511C10.2833 29.6021 10.3597 29.7992 10.3597 30.0036C10.3597 30.2081 10.2833 30.4051 10.1456 30.5562C10.0079 30.7073 9.81877 30.8015 9.61522 30.8204H7.00311ZM44.414 16.4064C44.2532 16.4048 44.0964 16.3559 43.963 16.2659C43.8297 16.1759 43.7258 16.0487 43.6642 15.9001C43.6027 15.7514 43.5862 15.588 43.6168 15.4301C43.6474 15.2722 43.7237 15.1267 43.8363 15.0118L45.6832 13.165C45.8404 13.0336 46.0411 12.9658 46.2458 12.975C46.4505 12.9841 46.6443 13.0695 46.7892 13.2144C46.9341 13.3593 47.0195 13.5531 47.0287 13.7578C47.0378 13.9625 46.97 14.1632 46.8387 14.3204L44.9918 16.1673C44.9162 16.2435 44.8261 16.3039 44.727 16.3449C44.6278 16.386 44.5214 16.4069 44.414 16.4064ZM13.739 47.079C13.6316 47.0794 13.5252 47.0583 13.426 47.017C13.3268 46.9758 13.2368 46.9152 13.1613 46.8388C13.0089 46.6851 12.9234 46.4775 12.9234 46.2611C12.9234 46.0446 13.0089 45.837 13.1613 45.6833L15.0082 43.8364C15.1654 43.7051 15.3661 43.6373 15.5708 43.6464C15.7755 43.6556 15.9693 43.741 16.1142 43.8859C16.2591 44.0308 16.3445 44.2246 16.3537 44.4293C16.3628 44.634 16.295 44.8347 16.1637 44.9919L14.3168 46.8388C14.2412 46.915 14.1511 46.9755 14.052 47.0168C13.9528 47.058 13.8464 47.0792 13.739 47.079ZM46.2609 47.079C46.1535 47.0792 46.0472 47.058 45.948 47.0168C45.8488 46.9755 45.7588 46.915 45.6832 46.8388L43.8363 44.9919C43.7049 44.8347 43.6372 44.634 43.6463 44.4293C43.6555 44.2246 43.7409 44.0308 43.8858 43.8859C44.0306 43.741 44.2245 43.6556 44.4292 43.6464C44.6339 43.6373 44.8346 43.7051 44.9918 43.8364L46.8387 45.6833C46.9911 45.837 47.0766 46.0446 47.0766 46.2611C47.0766 46.4775 46.9911 46.6851 46.8387 46.8388C46.7631 46.9152 46.6732 46.9758 46.574 47.017C46.4748 47.0583 46.3684 47.0794 46.2609 47.079ZM15.5859 16.4064C15.4789 16.4075 15.3727 16.3873 15.2736 16.3471C15.1744 16.3069 15.0842 16.2473 15.0082 16.172L13.1613 14.3251C13.0299 14.1679 12.9622 13.9672 12.9713 13.7625C12.9805 13.5578 13.0659 13.364 13.2108 13.2191C13.3556 13.0742 13.5495 12.9888 13.7542 12.9796C13.9589 12.9705 14.1596 13.0383 14.3168 13.1696L16.1637 15.0165C16.2747 15.1316 16.3497 15.2766 16.3794 15.4338C16.4091 15.5909 16.3922 15.7533 16.3308 15.901C16.2695 16.0487 16.1662 16.1752 16.0339 16.265C15.9015 16.3548 15.7458 16.4039 15.5859 16.4064ZM22.3312 11.9743C22.284 11.9744 22.2378 11.9605 22.1984 11.9345C22.159 11.9084 22.1282 11.8713 22.1097 11.8278L20.6543 8.35441C20.6413 8.3255 20.6343 8.29426 20.6337 8.26257C20.6332 8.23088 20.639 8.19941 20.651 8.17005C20.6629 8.14069 20.6807 8.11406 20.7032 8.09177C20.7257 8.06948 20.7525 8.05198 20.782 8.04035C20.8113 8.02788 20.8428 8.0215 20.8746 8.0216C20.9216 8.02122 20.9676 8.03499 21.0067 8.06111C21.0458 8.08724 21.0761 8.1245 21.0937 8.16808L22.5504 11.6427C22.5626 11.6716 22.5689 11.7027 22.5689 11.7341C22.5689 11.7655 22.5626 11.7966 22.5504 11.8255C22.533 11.8699 22.5025 11.9079 22.4629 11.9345C22.4233 11.9611 22.3766 11.975 22.3289 11.9743H22.3312ZM39.1254 52.0314C39.078 52.0313 39.0317 52.0173 38.9923 51.991C38.9529 51.9647 38.9221 51.9274 38.9039 51.8837L37.4472 48.4103C37.4348 48.3812 37.4284 48.3499 37.4284 48.3183C37.4284 48.2867 37.4348 48.2554 37.4472 48.2263C37.4589 48.1971 37.4763 48.1705 37.4985 48.1481C37.5206 48.1258 37.547 48.1081 37.5762 48.0962C37.6055 48.0841 37.637 48.0778 37.6687 48.0775C37.7161 48.0776 37.7623 48.0917 37.8017 48.118C37.841 48.1442 37.8718 48.1815 37.8902 48.2251L39.3457 51.6986C39.3587 51.7275 39.3657 51.7587 39.3662 51.7904C39.3668 51.8221 39.3609 51.8535 39.349 51.8829C39.3371 51.9123 39.3193 51.9389 39.2968 51.9612C39.2742 51.9835 39.2474 52.001 39.218 52.0126C39.1885 52.0246 39.1571 52.0309 39.1254 52.0314ZM11.6414 22.7556C11.6105 22.7555 11.5798 22.7496 11.5512 22.738L8.06483 21.3107C8.03561 21.299 8.00903 21.2816 7.98668 21.2594C7.96433 21.2373 7.94667 21.2109 7.93475 21.1818C7.91072 21.1228 7.91072 21.0567 7.93475 20.9978C7.95222 20.9532 7.98292 20.915 8.02273 20.8884C8.06254 20.8618 8.10954 20.848 8.15741 20.8489C8.18846 20.8488 8.2192 20.8552 8.24764 20.8677L11.734 22.2939C11.7952 22.306 11.8491 22.3419 11.8838 22.3938C11.9186 22.4457 11.9312 22.5092 11.9191 22.5704C11.907 22.6317 11.8711 22.6856 11.8192 22.7203C11.7673 22.755 11.7038 22.7677 11.6426 22.7556H11.6414ZM51.8437 39.2075C51.8128 39.2075 51.7822 39.2015 51.7535 39.19L48.2672 37.7638C48.2083 37.7397 48.1614 37.6932 48.1367 37.6345C48.1121 37.5758 48.1118 37.5098 48.1359 37.4509C48.16 37.392 48.2065 37.3451 48.2652 37.3205C48.3239 37.2959 48.3899 37.2956 48.4488 37.3196L51.9351 38.7458C51.9964 38.7579 52.0503 38.7939 52.085 38.8457C52.1197 38.8976 52.1324 38.9611 52.1203 39.0224C52.1082 39.0836 52.0722 39.1375 52.0204 39.1722C51.9685 39.207 51.905 39.2197 51.8437 39.2075ZM8.23241 39.3939C8.17118 39.4061 8.10758 39.3936 8.05561 39.359C8.00363 39.3244 7.96754 39.2705 7.95526 39.2093C7.94298 39.1481 7.95553 39.0845 7.99015 39.0325C8.02476 38.9805 8.0786 38.9444 8.13983 38.9321L11.6133 37.4767C11.6425 37.4642 11.674 37.4578 11.7058 37.4579C11.7532 37.4571 11.7998 37.4706 11.8393 37.4968C11.8789 37.5229 11.9096 37.5605 11.9273 37.6044C11.9403 37.6333 11.9473 37.6646 11.9479 37.6962C11.9484 37.7279 11.9426 37.7594 11.9306 37.7888C11.9187 37.8181 11.9009 37.8448 11.8784 37.867C11.8559 37.8893 11.8291 37.9068 11.7996 37.9185L8.3203 39.3751C8.29237 39.3866 8.26259 39.393 8.23241 39.3939ZM48.2941 22.5997C48.2331 22.612 48.1696 22.5995 48.1177 22.565C48.0659 22.5305 48.0298 22.4768 48.0176 22.4157C48.0053 22.3547 48.0178 22.2912 48.0523 22.2394C48.0868 22.1875 48.1405 22.1515 48.2015 22.1392L51.6797 20.6825C51.7089 20.6701 51.7404 20.6637 51.7723 20.6638C51.8333 20.6515 51.8968 20.664 51.9486 20.6985C52.0005 20.733 52.0365 20.7867 52.0488 20.8478C52.0611 20.9088 52.0486 20.9723 52.0141 21.0242C51.9796 21.076 51.9259 21.1121 51.8648 21.1243L48.3867 22.581C48.3574 22.5934 48.3259 22.5998 48.2941 22.5997ZM21.0598 52.1122C21.02 52.1135 20.9805 52.1047 20.9451 52.0866C20.9097 52.0684 20.8794 52.0415 20.8573 52.0085C20.8351 51.9754 20.8218 51.9372 20.8184 51.8976C20.8151 51.8579 20.8219 51.818 20.8383 51.7818L22.2656 48.2966C22.2828 48.252 22.3133 48.2137 22.3528 48.1869C22.3924 48.1601 22.4393 48.146 22.4871 48.1466C22.5185 48.1464 22.5497 48.1527 22.5785 48.1653C22.6079 48.1768 22.6347 48.194 22.6572 48.216C22.6798 48.2381 22.6977 48.2644 22.7099 48.2935C22.722 48.3226 22.7282 48.3539 22.7279 48.3854C22.7277 48.417 22.7211 48.4481 22.7086 48.4771L21.2824 51.9634C21.2649 52.008 21.2342 52.0461 21.1944 52.0727C21.1546 52.0993 21.1076 52.1131 21.0598 52.1122ZM37.5129 11.9099C37.4819 11.91 37.4513 11.9041 37.4226 11.8923C37.393 11.881 37.366 11.8638 37.3432 11.8417C37.3204 11.8197 37.3023 11.7932 37.29 11.764C37.2777 11.7347 37.2715 11.7033 37.2718 11.6715C37.272 11.6398 37.2787 11.6085 37.2914 11.5794L38.7176 8.09308C38.735 8.0485 38.7657 8.01034 38.8055 7.98373C38.8453 7.95712 38.8923 7.94335 38.9402 7.94425C38.9713 7.94414 39.002 7.95053 39.0305 7.963C39.06 7.97432 39.0869 7.99148 39.1096 8.01345C39.1323 8.03543 39.1503 8.06177 39.1625 8.09088C39.1748 8.12 39.181 8.15129 39.1809 8.18289C39.1808 8.21448 39.1742 8.24572 39.1617 8.27472L37.7344 11.761C37.717 11.8054 37.6864 11.8435 37.6469 11.8701C37.6073 11.8967 37.5605 11.9105 37.5129 11.9099ZM43.3219 19.1087L43.3922 16.6536L40.9629 16.7497L30.2461 28.9243L31.1027 29.781L43.3219 19.1087ZM12.0961 29.3193L11.0344 30.0071L12.0961 30.6821L28.9922 30.3271V29.7048L12.0961 29.3193Z" fill="#333333"/>
</g>
<path id="Vector_5" d="M30 32.5268C31.3953 32.5268 32.5265 31.3956 32.5265 30.0002C32.5265 28.6048 31.3953 27.4736 30 27.4736C28.6046 27.4736 27.4734 28.6048 27.4734 30.0002C27.4734 31.3956 28.6046 32.5268 30 32.5268Z" fill="#3A3A3A" fill-opacity="0.160784"/>
<path id="Vector_6" d="M29.9999 32.3577C31.3021 32.3577 32.3577 31.3021 32.3577 29.9999C32.3577 28.6977 31.3021 27.6421 29.9999 27.6421C28.6977 27.6421 27.6421 28.6977 27.6421 29.9999C27.6421 31.3021 28.6977 32.3577 29.9999 32.3577Z" fill="#333333"/>
</g>
</g>
</g>
</svg>
