<svg width="14" height="26" viewBox="0 0 14 26" fill="none" xmlns="http://www.w3.org/2000/svg">
<mask id="path-1-inside-1_6776_32873" fill="white">
<path fillRule="evenodd" clipRule="evenodd" d="M7 23.5C5.83968 23.5 4.72688 23.0391 3.90641 22.2186C3.08594 21.3981 2.625 20.2853 2.625 19.125V5.12325C2.62523 4.42759 2.90168 3.76049 3.39359 3.26859C3.88549 2.77668 4.55259 2.50023 5.24825 2.5H5.25175C5.94748 2.5 6.61471 2.77638 7.10667 3.26833C7.59862 3.76029 7.875 4.42752 7.875 5.12325V17.3768C7.875 17.4914 7.85241 17.605 7.80853 17.7109C7.76464 17.8169 7.70032 17.9131 7.61923 17.9942C7.53814 18.0753 7.44188 18.1396 7.33593 18.1835C7.22998 18.2274 7.11643 18.25 7.00175 18.25H7C6.76794 18.25 6.54538 18.1578 6.38128 17.9937C6.21719 17.8296 6.125 17.6071 6.125 17.375V6.875C6.125 6.64294 6.03281 6.42038 5.86872 6.25628C5.70462 6.09219 5.48206 6 5.25 6C5.01794 6 4.79538 6.09219 4.63128 6.25628C4.46719 6.42038 4.375 6.64294 4.375 6.875V17.375C4.375 18.0712 4.65156 18.7389 5.14384 19.2312C5.63613 19.7234 6.30381 20 7 20H7.00175C7.34624 20 7.68736 19.9321 8.00562 19.8003C8.32389 19.6685 8.61308 19.4753 8.85667 19.2317C9.10026 18.9881 9.29349 18.6989 9.42532 18.3806C9.55715 18.0624 9.625 17.7212 9.625 17.3768V5.12325C9.625 3.96339 9.16425 2.85104 8.3441 2.0309C7.52396 1.21075 6.41161 0.75 5.25175 0.75H5.24825C4.08853 0.750464 2.97645 1.21136 2.15641 2.03141C1.33636 2.85145 0.875464 3.96353 0.875 5.12325V19.125C0.875 20.7495 1.52031 22.3074 2.66897 23.456C3.81763 24.6047 5.37555 25.25 7 25.25C8.62445 25.25 10.1824 24.6047 11.331 23.456C12.4797 22.3074 13.125 20.7495 13.125 19.125V6.875C13.125 6.64294 13.0328 6.42038 12.8687 6.25628C12.7046 6.09219 12.4821 6 12.25 6C12.0179 6 11.7954 6.09219 11.6313 6.25628C11.4672 6.42038 11.375 6.64294 11.375 6.875V19.125C11.375 20.2853 10.9141 21.3981 10.0936 22.2186C9.27312 23.0391 8.16032 23.5 7 23.5Z"/>
</mask>
<path fillRule="evenodd" clipRule="evenodd" d="M7 23.5C5.83968 23.5 4.72688 23.0391 3.90641 22.2186C3.08594 21.3981 2.625 20.2853 2.625 19.125V5.12325C2.62523 4.42759 2.90168 3.76049 3.39359 3.26859C3.88549 2.77668 4.55259 2.50023 5.24825 2.5H5.25175C5.94748 2.5 6.61471 2.77638 7.10667 3.26833C7.59862 3.76029 7.875 4.42752 7.875 5.12325V17.3768C7.875 17.4914 7.85241 17.605 7.80853 17.7109C7.76464 17.8169 7.70032 17.9131 7.61923 17.9942C7.53814 18.0753 7.44188 18.1396 7.33593 18.1835C7.22998 18.2274 7.11643 18.25 7.00175 18.25H7C6.76794 18.25 6.54538 18.1578 6.38128 17.9937C6.21719 17.8296 6.125 17.6071 6.125 17.375V6.875C6.125 6.64294 6.03281 6.42038 5.86872 6.25628C5.70462 6.09219 5.48206 6 5.25 6C5.01794 6 4.79538 6.09219 4.63128 6.25628C4.46719 6.42038 4.375 6.64294 4.375 6.875V17.375C4.375 18.0712 4.65156 18.7389 5.14384 19.2312C5.63613 19.7234 6.30381 20 7 20H7.00175C7.34624 20 7.68736 19.9321 8.00562 19.8003C8.32389 19.6685 8.61308 19.4753 8.85667 19.2317C9.10026 18.9881 9.29349 18.6989 9.42532 18.3806C9.55715 18.0624 9.625 17.7212 9.625 17.3768V5.12325C9.625 3.96339 9.16425 2.85104 8.3441 2.0309C7.52396 1.21075 6.41161 0.75 5.25175 0.75H5.24825C4.08853 0.750464 2.97645 1.21136 2.15641 2.03141C1.33636 2.85145 0.875464 3.96353 0.875 5.12325V19.125C0.875 20.7495 1.52031 22.3074 2.66897 23.456C3.81763 24.6047 5.37555 25.25 7 25.25C8.62445 25.25 10.1824 24.6047 11.331 23.456C12.4797 22.3074 13.125 20.7495 13.125 19.125V6.875C13.125 6.64294 13.0328 6.42038 12.8687 6.25628C12.7046 6.09219 12.4821 6 12.25 6C12.0179 6 11.7954 6.09219 11.6313 6.25628C11.4672 6.42038 11.375 6.64294 11.375 6.875V19.125C11.375 20.2853 10.9141 21.3981 10.0936 22.2186C9.27312 23.0391 8.16032 23.5 7 23.5Z" fill="#005AFF"/>
<path d="M7 23.5L7 7.5L7 23.5ZM2.625 19.125L-13.375 19.125L2.625 19.125ZM2.625 5.12325L-13.375 5.11792V5.12325H2.625ZM5.24825 2.5L5.24825 -13.5L5.24292 -13.5L5.24825 2.5ZM5.25175 2.5V-13.5V2.5ZM5.25 6L5.25 22L5.25 6ZM7 20V36V20ZM5.24825 0.75L5.24825 -15.25L5.24185 -15.25L5.24825 0.75ZM0.875 5.12325L-15.125 5.11685V5.12325H0.875ZM7 25.25L7 41.25L7 25.25ZM12.25 6L12.25 22L12.25 6ZM7 7.5C10.0831 7.5 13.04 8.72477 15.2201 10.9049L-7.4073 33.5323C-3.58625 37.3534 1.59621 39.5 7 39.5L7 7.5ZM15.2201 10.9049C17.4002 13.085 18.625 16.0419 18.625 19.125L-13.375 19.125C-13.375 24.5288 -11.2284 29.7112 -7.4073 33.5323L15.2201 10.9049ZM18.625 19.125V5.12325H-13.375V19.125H18.625ZM18.625 5.12858C18.6238 8.67454 17.2147 12.0749 14.7073 14.5823L-7.92012 -8.04512C-11.4113 -4.55394 -13.3734 0.180646 -13.375 5.11792L18.625 5.12858ZM14.7073 14.5823C12.1999 17.0897 8.79954 18.4988 5.25358 18.5L5.24292 -13.5C0.305646 -13.4984 -4.42894 -11.5363 -7.92012 -8.04512L14.7073 14.5823ZM5.24825 18.5H5.25175V-13.5H5.24825V18.5ZM5.25175 18.5C1.70402 18.5 -1.69841 17.0907 -4.20704 14.582L18.4204 -8.04538C14.9278 -11.5379 10.1909 -13.5 5.25175 -13.5L5.25175 18.5ZM-4.20704 14.582C-6.71567 12.0734 -8.125 8.67098 -8.125 5.12325H23.875C23.875 0.184061 21.9129 -4.55284 18.4204 -8.04538L-4.20704 14.582ZM-8.125 5.12325V17.3768H23.875V5.12325H-8.125ZM-8.125 17.3768C-8.125 15.3903 -7.73375 13.4233 -6.97354 11.588L22.5906 23.8339C23.4386 21.7867 23.875 19.5925 23.875 17.3768H-8.125ZM-6.97354 11.588C-6.21335 9.75273 -5.09912 8.08517 -3.69448 6.68052L18.9329 29.3079C20.4998 27.7411 21.7426 25.881 22.5906 23.8339L-6.97354 11.588ZM-3.69448 6.68052C-2.28983 5.27588 -0.622269 4.16165 1.21299 3.40146L13.4589 32.9656C15.506 32.1176 17.3661 30.8748 18.9329 29.3079L-3.69448 6.68052ZM1.21299 3.40146C3.04829 2.64125 5.01531 2.25 7.00175 2.25V34.25C9.21754 34.25 11.4117 33.8136 13.4589 32.9656L1.21299 3.40146ZM7.00175 2.25H7V34.25H7.00175V2.25ZM7 2.25C11.0114 2.25 14.8585 3.8435 17.695 6.68001L-4.93243 29.3074C-1.76773 32.4721 2.5245 34.25 7 34.25V2.25ZM17.695 6.68001C20.5315 9.5165 22.125 13.3636 22.125 17.375H-9.875C-9.875 21.8505 -8.09711 26.1427 -4.93243 29.3074L17.695 6.68001ZM22.125 17.375V6.875H-9.875V17.375H22.125ZM22.125 6.875C22.125 2.39946 20.3471 -1.89276 17.1824 -5.05743L-5.44499 17.57C-8.28147 14.7335 -9.875 10.8864 -9.875 6.875H22.125ZM17.1824 -5.05743C14.0178 -8.2221 9.72554 -10 5.25 -10L5.25 22C1.23859 22 -2.60851 20.4065 -5.44499 17.57L17.1824 -5.05743ZM5.25 -10C0.774461 -10 -3.51776 -8.2221 -6.68243 -5.05743L15.945 17.57C13.1085 20.4065 9.26141 22 5.25 22L5.25 -10ZM-6.68243 -5.05743C-9.8471 -1.89276 -11.625 2.39946 -11.625 6.875H20.375C20.375 10.8864 18.7815 14.7335 15.945 17.57L-6.68243 -5.05743ZM-11.625 6.875V17.375H20.375V6.875H-11.625ZM-11.625 17.375C-11.625 22.3146 -9.66273 27.052 -6.16986 30.5449L16.4576 7.91745C18.9659 10.4258 20.375 13.8277 20.375 17.375H-11.625ZM-6.16986 30.5449C-2.67699 34.0377 2.06035 36 7 36L7 4C10.5473 4 13.9492 5.40914 16.4576 7.91745L-6.16986 30.5449ZM7 36H7.00175V4H7V36ZM7.00175 36C9.44738 36 11.8691 35.5183 14.1286 34.5824L1.88269 5.01824C3.50564 4.346 5.2451 4 7.00175 4V36ZM14.1286 34.5824C16.388 33.6465 18.441 32.2747 20.1704 30.5454L-2.45704 7.91796C-1.21489 6.67581 0.259747 5.69049 1.88269 5.01824L14.1286 34.5824ZM20.1704 30.5454C21.8997 28.816 23.2715 26.763 24.2074 24.5036L-5.35676 12.2577C-4.68451 10.6347 -3.69919 9.16011 -2.45704 7.91796L20.1704 30.5454ZM24.2074 24.5036C25.1433 22.2441 25.625 19.8224 25.625 17.3768H-6.375C-6.375 15.6201 -6.029 13.8806 -5.35676 12.2577L24.2074 24.5036ZM25.625 17.3768V5.12325H-6.375V17.3768H25.625ZM25.625 5.12325C25.625 -0.280073 23.4785 -5.46209 19.6578 -9.28281L-2.9696 13.3446C-5.15004 11.1642 -6.375 8.20686 -6.375 5.12325H25.625ZM19.6578 -9.28281C15.8371 -13.1035 10.6551 -15.25 5.25175 -15.25L5.25175 16.75C2.16814 16.75 -0.789166 15.525 -2.9696 13.3446L19.6578 -9.28281ZM5.25175 -15.25H5.24825V16.75H5.25175V-15.25ZM5.24185 -15.25C-0.159111 -15.2478 -5.33824 -13.1014 -9.1573 -9.2823L13.4701 13.3451C11.2911 15.5241 8.33618 16.7488 5.25465 16.75L5.24185 -15.25ZM-9.1573 -9.2823C-12.9764 -5.46325 -15.1228 -0.284113 -15.125 5.11685L16.875 5.12965C16.8738 8.21118 15.6491 11.1661 13.4701 13.3451L-9.1573 -9.2823ZM-15.125 5.12325V19.125H16.875V5.12325H-15.125ZM-15.125 19.125C-15.125 24.9929 -12.794 30.6205 -8.64474 34.7697L13.9827 12.1423C15.8346 13.9942 16.875 16.506 16.875 19.125H-15.125ZM-8.64474 34.7697C-4.4955 38.919 1.13208 41.25 7 41.25L7 9.25C9.61902 9.25 12.1308 10.2904 13.9827 12.1423L-8.64474 34.7697ZM7 41.25C12.8679 41.25 18.4955 38.919 22.6447 34.7697L0.0173202 12.1423C1.86924 10.2904 4.38098 9.25 7 9.25L7 41.25ZM22.6447 34.7697C26.794 30.6205 29.125 24.9929 29.125 19.125H-2.875C-2.875 16.506 -1.8346 13.9942 0.0173202 12.1423L22.6447 34.7697ZM29.125 19.125V6.875H-2.875V19.125H29.125ZM29.125 6.875C29.125 2.3995 27.3471 -1.89273 24.1824 -5.05743L1.55501 17.57C-1.2815 14.7335 -2.875 10.8864 -2.875 6.875H29.125ZM24.1824 -5.05743C21.0177 -8.22211 16.7255 -10 12.25 -10L12.25 22C8.23861 22 4.3915 20.4065 1.55501 17.57L24.1824 -5.05743ZM12.25 -10C7.77448 -10 3.48225 -8.22211 0.317572 -5.05743L22.945 17.57C20.1085 20.4065 16.2614 22 12.25 22L12.25 -10ZM0.317572 -5.05743C-2.84712 -1.89273 -4.625 2.3995 -4.625 6.875H27.375C27.375 10.8864 25.7815 14.7335 22.945 17.57L0.317572 -5.05743ZM-4.625 6.875V19.125H27.375V6.875H-4.625ZM-4.625 19.125C-4.625 16.0419 -3.40023 13.085 -1.22012 10.9049L21.4073 33.5323C25.2284 29.7112 27.375 24.5288 27.375 19.125H-4.625ZM-1.22012 10.9049C0.959994 8.72477 3.91686 7.5 7 7.5V39.5C12.4038 39.5 17.5862 37.3534 21.4073 33.5323L-1.22012 10.9049Z" fill="#005AFF" mask="url(#path-1-inside-1_6776_32873)"/>
</svg>
