<svg width="94" height="84" viewBox="0 0 94 84" fill="none" xmlns="http://www.w3.org/2000/svg">
<path fillRule="evenodd" clipRule="evenodd" d="M78.875 48.2418C76.0813 45.4478 72.4052 43.709 68.4731 43.3216C64.541 42.9342 60.5963 43.9222 57.311 46.1172C54.0257 48.3123 51.6032 51.5785 50.4562 55.3595C49.3092 59.1404 49.5086 63.2021 51.0206 66.8525C52.5325 70.5028 55.2634 73.516 58.748 75.3786C62.2325 77.2411 66.2551 77.8379 70.1303 77.0671C74.0055 76.2963 77.4935 74.2056 80 71.1514C82.5066 68.0972 83.8766 64.2683 83.8766 60.3172C83.8795 58.0742 83.4392 55.8527 82.5808 53.7804C81.7225 51.7081 80.4631 49.8258 78.875 48.2418ZM66.7994 41.0934C71.2472 41.0933 75.5575 42.6354 78.9957 45.457C82.434 48.2786 84.7875 52.2051 85.6553 56.5675C86.5231 60.9298 85.8515 65.4581 83.7548 69.3808C81.6582 73.3034 78.2663 76.3777 74.157 78.0799C70.0478 79.782 65.4755 80.0067 61.2192 78.7156C56.9629 77.4245 53.2859 74.6975 50.8148 70.9993C48.3437 67.301 47.2314 62.8604 47.6674 58.434C48.1033 54.0076 50.0606 49.8693 53.2057 46.7242C54.9888 44.9364 57.1077 43.5185 59.4406 42.5522C61.7735 41.5859 64.2743 41.0901 66.7994 41.0934ZM66.3697 59.8875C66.4547 59.8024 66.5631 59.7444 66.681 59.7209C66.799 59.6974 66.9213 59.7094 67.0324 59.7554C67.1435 59.8014 67.2385 59.8793 67.3054 59.9793C67.3722 60.0793 67.4079 60.1969 67.4079 60.3172C67.4079 60.4375 67.3722 60.555 67.3054 60.6551C67.2385 60.7551 67.1435 60.833 67.0324 60.879C66.9213 60.925 66.799 60.937 66.681 60.9135C66.5631 60.89 66.4547 60.832 66.3697 60.7469C66.256 60.6328 66.1922 60.4783 66.1922 60.3172C66.1922 60.1561 66.256 60.0016 66.3697 59.8875ZM69.3535 61.3523L72.2881 64.2871C72.3886 64.3866 72.4684 64.5049 72.5231 64.6354C72.5777 64.7658 72.606 64.9057 72.6064 65.0471C72.6067 65.1886 72.5791 65.3286 72.5252 65.4593C72.4712 65.5901 72.392 65.7088 72.292 65.8088C72.192 65.9088 72.0733 65.988 71.9425 66.042C71.8118 66.0959 71.6718 66.1235 71.5303 66.1232C71.3889 66.1228 71.249 66.0945 71.1186 66.0399C70.9881 65.9852 70.8698 65.9054 70.7703 65.8049L67.8361 62.8707C67.1635 63.138 66.4127 63.1298 65.746 62.848C65.0793 62.5662 64.5502 62.0334 64.2731 61.3647C63.996 60.6961 63.9932 59.9452 64.2652 59.2745C64.5372 58.6037 65.0622 58.0669 65.7268 57.7801V50.3131C65.7216 50.1689 65.7456 50.0251 65.7972 49.8904C65.8488 49.7556 65.9271 49.6327 66.0273 49.5289C66.1275 49.425 66.2476 49.3424 66.3804 49.286C66.5132 49.2296 66.656 49.2006 66.8003 49.2006C66.9446 49.2006 67.0874 49.2296 67.2202 49.286C67.353 49.3424 67.4731 49.425 67.5733 49.5289C67.6735 49.6327 67.7518 49.7556 67.8034 49.8904C67.855 50.0251 67.879 50.1689 67.8738 50.3131V57.7795C68.5398 58.0619 69.0681 58.5946 69.345 59.2628C69.6219 59.9311 69.6252 60.6813 69.3541 61.352L69.3535 61.3523ZM81.8926 45.2252C85.3841 48.7172 87.5568 53.3117 88.0406 58.226C88.5243 63.1403 87.2892 68.0703 84.5456 72.1761C81.8019 76.2818 77.7196 79.3092 72.9941 80.7425C68.2686 82.1758 63.1924 81.9262 58.6302 80.0364C54.0681 78.1465 50.3024 74.7333 47.9747 70.3783C45.647 66.0232 44.9013 60.9958 45.8648 56.1527C46.8282 51.3095 49.4411 46.9502 53.2583 43.8176C57.0755 40.6849 61.8608 38.9727 66.7988 38.9727C69.6023 38.9689 72.3789 39.5193 74.969 40.5921C77.5591 41.6649 79.9116 43.2391 81.8914 45.224L81.8926 45.2252ZM65.7266 46.7326V44.7168H67.8736V46.7322L65.7266 46.7326ZM53.2152 61.3912H51.1992V59.2438H53.2148V61.3908L53.2152 61.3912ZM67.8736 73.9027V75.9182H65.7254V73.9023L67.8736 73.9027ZM80.3852 59.2441H82.4006V61.3912H80.384V59.2438L80.3852 59.2441ZM17.8738 2.33887C17.2811 2.34134 16.7133 2.57791 16.2941 2.99706C15.875 3.41621 15.6384 3.98399 15.6359 4.57676V10.3398C15.6414 10.9298 15.8797 11.4937 16.2988 11.9089C16.7179 12.3241 17.284 12.557 17.8739 12.557C18.4639 12.557 19.03 12.3241 19.4491 11.9089C19.8682 11.4937 20.1064 10.9298 20.1119 10.3398V4.57813C20.1094 3.98533 19.8729 3.41751 19.4537 2.99836C19.0345 2.5792 18.4666 2.34265 17.8738 2.34024V2.33887ZM35.5654 2.33887C34.9728 2.34149 34.4051 2.57813 33.9861 2.99726C33.5671 3.4164 33.3306 3.98409 33.3281 4.57676V10.3398C33.3336 10.9298 33.5718 11.4937 33.991 11.9089C34.4101 12.3241 34.9762 12.557 35.5661 12.557C36.1561 12.557 36.7222 12.3241 37.1413 11.9089C37.5604 11.4937 37.7986 10.9298 37.8041 10.3398V4.57813C37.8016 3.98533 37.565 3.41751 37.1458 2.99836C36.7267 2.5792 36.1588 2.34265 35.566 2.34024L35.5654 2.33887ZM53.2568 2.33887C52.6641 2.34134 52.0963 2.57791 51.6771 2.99706C51.258 3.41621 51.0214 3.98399 51.0189 4.57676V10.3398C51.0189 10.9334 51.2547 11.5027 51.6745 11.9224C52.0942 12.3421 52.6635 12.5779 53.257 12.5779C53.8506 12.5779 54.4199 12.3421 54.8396 11.9224C55.2593 11.5027 55.4951 10.9334 55.4951 10.3398V4.57813C55.4926 3.98529 55.256 3.41745 54.8368 2.99829C54.4176 2.57912 53.8497 2.3426 53.2568 2.34024V2.33887ZM21.442 28.5693H14.8045C14.7921 28.5693 14.7797 28.5717 14.7683 28.5764C14.7568 28.5812 14.7463 28.5881 14.7375 28.5969C14.7287 28.6057 14.7218 28.6161 14.7171 28.6276C14.7123 28.6391 14.7099 28.6514 14.71 28.6639V34.3975C14.7099 34.4099 14.7123 34.4222 14.7171 34.4337C14.7218 34.4452 14.7287 34.4556 14.7375 34.4644C14.7463 34.4732 14.7568 34.4802 14.7683 34.4849C14.7797 34.4896 14.7921 34.492 14.8045 34.492H21.442C21.4544 34.492 21.4667 34.4896 21.4782 34.4848C21.4896 34.4801 21.5001 34.4731 21.5088 34.4644C21.5176 34.4556 21.5245 34.4451 21.5293 34.4337C21.534 34.4222 21.5364 34.4099 21.5363 34.3975V28.6645C21.5364 28.652 21.534 28.6397 21.5293 28.6283C21.5245 28.6168 21.5176 28.6064 21.5088 28.5976C21.5001 28.5888 21.4896 28.5818 21.4782 28.5771C21.4667 28.5723 21.4544 28.5699 21.442 28.5699V28.5693ZM14.8045 26.423H21.442C22.0359 26.425 22.6049 26.6617 23.0248 27.0816C23.4447 27.5016 23.6815 28.0706 23.6834 28.6645V34.398C23.6815 34.9919 23.4447 35.5609 23.0248 35.9809C22.6049 36.4008 22.0359 36.6376 21.442 36.6395H14.8045C14.2106 36.6377 13.6415 36.4009 13.2215 35.981C12.8015 35.561 12.5647 34.992 12.5629 34.398V28.6645C12.5647 28.0705 12.8015 27.5015 13.2215 27.0815C13.6415 26.6616 14.2106 26.4249 14.8045 26.423ZM38.8844 28.5699H32.2469C32.2344 28.5699 32.2221 28.5723 32.2106 28.577C32.1991 28.5817 32.1887 28.5887 32.1799 28.5975C32.1711 28.6063 32.1642 28.6167 32.1594 28.6282C32.1547 28.6397 32.1523 28.652 32.1523 28.6645V34.398C32.1523 34.4105 32.1547 34.4228 32.1594 34.4343C32.1642 34.4458 32.1711 34.4562 32.1799 34.465C32.1887 34.4738 32.1991 34.4808 32.2106 34.4855C32.2221 34.4902 32.2344 34.4926 32.2469 34.4926H38.8844C38.9092 34.4917 38.9327 34.4815 38.9502 34.464C38.9677 34.4464 38.9779 34.4228 38.9787 34.398V28.6645C38.9779 28.6397 38.9677 28.6161 38.9502 28.5985C38.9327 28.581 38.9092 28.5708 38.8844 28.5699ZM32.2469 26.423H38.8844C39.4785 26.4243 40.0478 26.6608 40.4679 27.0809C40.888 27.501 41.1245 28.0704 41.1258 28.6645V34.398C41.1245 34.9921 40.888 35.5615 40.4679 35.9816C40.0478 36.4017 39.4785 36.6382 38.8844 36.6395H32.2469C31.653 36.6377 31.0839 36.4009 30.6639 35.981C30.2439 35.561 30.0071 34.992 30.0053 34.398V28.6645C30.0071 28.0705 30.2439 27.5015 30.6639 27.0815C31.0839 26.6616 31.653 26.4249 32.2469 26.423ZM56.3268 28.5699H49.6894C49.677 28.5699 49.6647 28.5723 49.6532 28.577C49.6417 28.5817 49.6312 28.5887 49.6224 28.5975C49.6136 28.6063 49.6066 28.6167 49.6019 28.6282C49.5971 28.6397 49.5947 28.652 49.5947 28.6645V34.398C49.5947 34.4105 49.5971 34.4228 49.6019 34.4343C49.6066 34.4458 49.6136 34.4562 49.6224 34.465C49.6312 34.4738 49.6417 34.4808 49.6532 34.4855C49.6647 34.4902 49.677 34.4926 49.6894 34.4926H56.3268C56.3516 34.4918 56.3752 34.4816 56.3927 34.464C56.4103 34.4465 56.4205 34.4229 56.4213 34.398V28.6645C56.4205 28.6396 56.4103 28.616 56.3927 28.5985C56.3752 28.5809 56.3516 28.5707 56.3268 28.5699ZM49.6894 26.423H56.3268C56.9208 26.4243 57.4902 26.6608 57.9103 27.0809C58.3304 27.501 58.5669 28.0704 58.5682 28.6645V34.398C58.5669 34.9921 58.3304 35.5615 57.9103 35.9816C57.4902 36.4017 56.9208 36.6382 56.3268 36.6395H49.6894C49.0955 36.6377 48.5265 36.4009 48.1065 35.981C47.6865 35.561 47.4497 34.992 47.4478 34.398V28.6645C47.4451 28.3693 47.5012 28.0766 47.6129 27.8034C47.7245 27.5302 47.8895 27.282 48.0983 27.0733C48.307 26.8646 48.5552 26.6996 48.8284 26.588C49.1016 26.4763 49.3943 26.4203 49.6894 26.423ZM21.3105 42.4668H14.9352C14.741 42.4602 14.71 42.4609 14.71 42.5611V48.2949C14.71 48.4195 14.7529 48.3926 14.9352 48.3893H21.3111C21.4338 48.3893 21.5352 48.4088 21.5363 48.2949V42.5611C21.5363 42.4635 21.527 42.4559 21.3111 42.4668H21.3105ZM14.9352 40.3203H21.3111C22.5602 40.3203 23.6834 41.275 23.6834 42.5617V48.2949C23.6834 49.5816 22.5602 50.5363 21.3111 50.5363H14.9352C13.6861 50.5363 12.5629 49.5816 12.5629 48.2949V42.5611C12.5629 41.2744 13.6861 40.3197 14.9352 40.3197V40.3203ZM38.7535 42.4674H32.3775C32.3309 42.4674 32.1473 42.4283 32.1523 42.5617V48.2949C32.1523 48.3473 32.3309 48.3893 32.3775 48.3893H38.7535C38.8002 48.3893 38.9787 48.3471 38.9787 48.2949V42.5611C38.9787 42.5088 38.8002 42.4668 38.7535 42.4668V42.4674ZM32.3775 40.3203H38.7535C40.0035 40.3203 41.1258 41.275 41.1258 42.5617V48.2949C41.1258 49.5816 40.0027 50.5363 38.7535 50.5363H32.3775C31.1275 50.5363 30.0053 49.5816 30.0053 48.2949V42.5611C30.0053 41.2744 31.1285 40.3197 32.3775 40.3197V40.3203ZM21.442 56.3641H14.8045C14.7921 56.364 14.7797 56.3664 14.7683 56.3712C14.7568 56.3759 14.7463 56.3829 14.7375 56.3916C14.7287 56.4004 14.7218 56.4109 14.7171 56.4224C14.7123 56.4338 14.7099 56.4462 14.71 56.4586V62.1914C14.7098 62.2039 14.7122 62.2162 14.7169 62.2277C14.7216 62.2393 14.7286 62.2497 14.7374 62.2585C14.7462 62.2673 14.7566 62.2743 14.7682 62.279C14.7797 62.2837 14.792 62.2861 14.8045 62.2859H21.442C21.4544 62.286 21.4667 62.2835 21.4782 62.2788C21.4896 62.274 21.5001 62.2671 21.5088 62.2583C21.5176 62.2495 21.5245 62.2391 21.5293 62.2276C21.534 62.2161 21.5364 62.2038 21.5363 62.1914V56.458C21.5364 56.4456 21.534 56.4333 21.5293 56.4218C21.5245 56.4103 21.5176 56.3999 21.5088 56.3911C21.5001 56.3823 21.4896 56.3754 21.4782 56.3706C21.4667 56.3659 21.4544 56.3634 21.442 56.3635V56.3641ZM14.8045 54.2164H21.442C22.0359 54.2184 22.6049 54.4552 23.0248 54.8751C23.4447 55.2951 23.6815 55.8641 23.6834 56.458V62.1914C23.6815 62.7853 23.4448 63.3544 23.0249 63.7743C22.6049 64.1943 22.0359 64.4311 21.442 64.433H14.8045C14.2106 64.4311 13.6416 64.1943 13.2216 63.7743C12.8016 63.3543 12.5648 62.7853 12.5629 62.1914V56.458C12.5647 55.8641 12.8015 55.295 13.2215 54.875C13.6415 54.455 14.2106 54.2183 14.8045 54.2164ZM38.8844 56.3635H32.2469C32.2344 56.3634 32.2221 56.3658 32.2106 56.3706C32.1991 56.3753 32.1887 56.3823 32.1799 56.391C32.1711 56.3998 32.1642 56.4103 32.1594 56.4218C32.1547 56.4333 32.1523 56.4456 32.1523 56.458V62.1914C32.1522 62.2039 32.1546 62.2162 32.1593 62.2277C32.164 62.2393 32.1709 62.2497 32.1797 62.2585C32.1885 62.2673 32.199 62.2743 32.2105 62.279C32.2221 62.2837 32.2344 62.2861 32.2469 62.2859H38.8844C38.9092 62.2851 38.9327 62.2749 38.9502 62.2573C38.9677 62.2398 38.9779 62.2162 38.9787 62.1914V56.458C38.9779 56.4332 38.9677 56.4097 38.9502 56.3921C38.9327 56.3745 38.9092 56.3643 38.8844 56.3635ZM32.2469 54.2164H38.8844C39.4785 54.2176 40.0479 54.4542 40.468 54.8743C40.8881 55.2945 41.1246 55.8639 41.1258 56.458V62.1914C41.1246 62.7855 40.8881 63.355 40.468 63.7751C40.0479 64.1952 39.4785 64.4318 38.8844 64.433H32.2469C31.653 64.4311 31.0839 64.1943 30.664 63.7743C30.244 63.3543 30.0072 62.7853 30.0053 62.1914V56.458C30.0071 55.8641 30.2439 55.295 30.6639 54.875C31.0839 54.455 31.6529 54.2183 32.2469 54.2164ZM76.7633 17.9141H61.7977V25.6248H76.7633C77.0482 25.6248 77.3214 25.738 77.5229 25.9394C77.7243 26.1409 77.8375 26.4141 77.8375 26.699V29.7086L90.7537 21.7701L77.8375 13.8316V16.8412C77.8375 17.1261 77.7243 17.3993 77.5229 17.6008C77.3214 17.8023 77.0482 17.9154 76.7633 17.9154V17.9141ZM71.0051 15.767H75.6898V11.9115C75.6901 11.7179 75.7427 11.5279 75.8421 11.3616C75.9414 11.1954 76.0839 11.0592 76.2544 10.9673C76.4249 10.8754 76.617 10.8313 76.8105 10.8397C77.004 10.8481 77.1916 10.9086 77.3535 11.0148L93.3643 20.8553C93.5212 20.9522 93.6505 21.088 93.7397 21.2495C93.829 21.4109 93.8751 21.5926 93.8737 21.7771C93.8724 21.9616 93.8235 22.1426 93.7319 22.3027C93.6403 22.4628 93.5089 22.5966 93.3506 22.6912L77.3252 32.5406C77.1624 32.6398 76.9763 32.6939 76.7857 32.6975C76.5952 32.7011 76.4071 32.6539 76.2408 32.5609C76.0744 32.4679 75.9358 32.3323 75.839 32.1681C75.7423 32.0039 75.691 31.8169 75.6902 31.6264V27.7711H71.0051V37.2014C74.95 37.9217 78.6449 39.6401 81.7376 42.1929C84.8303 44.7456 87.218 48.0477 88.6731 51.7846C90.1282 55.5215 90.6023 59.5687 90.0503 63.5407C89.4983 67.5127 87.9385 71.2772 85.5195 74.4756C83.1005 77.6741 79.9029 80.2 76.2313 81.8126C72.5596 83.4252 68.5363 84.071 64.5444 83.6883C60.5525 83.3056 56.7251 81.9072 53.4267 79.6264C50.1283 77.3455 47.4688 74.2582 45.7016 70.6584H5.72422C4.28333 70.6665 2.8901 70.1427 1.81133 69.1875C1.28689 68.7293 0.865526 68.1652 0.575023 67.5322C0.28452 66.8993 0.131474 66.212 0.125977 65.5156V11.8457C0.131639 11.1495 0.284784 10.4624 0.575317 9.82969C0.865851 9.19698 1.28718 8.63303 1.81152 8.175C2.88998 7.21923 4.28321 6.69505 5.72422 6.70293H13.4889V4.57676C13.5043 3.42398 13.973 2.32364 14.7936 1.51389C15.6143 0.704141 16.7208 0.250133 17.8736 0.250133C19.0265 0.250133 20.133 0.704141 20.9536 1.51389C21.7743 2.32364 22.243 3.42398 22.2584 4.57676V6.70293H31.1797V4.57676C31.1906 3.42102 31.6574 2.31632 32.4785 1.50291C33.2996 0.689508 34.4087 0.233185 35.5645 0.233185C36.7202 0.233185 37.8293 0.689508 38.6504 1.50291C39.4715 2.31632 39.9383 3.42102 39.9492 4.57676V6.70293H48.8709V4.57676C48.8818 3.42102 49.3486 2.31632 50.1697 1.50291C50.9908 0.689508 52.0999 0.233185 53.2557 0.233185C54.4115 0.233185 55.5205 0.689508 56.3416 1.50291C57.1628 2.31632 57.6295 3.42102 57.6404 4.57676V6.70293H65.4051C66.8461 6.6951 68.2394 7.21926 69.318 8.175C69.8423 8.63306 70.2636 9.19702 70.5541 9.82972C70.8446 10.4624 70.9978 11.1495 71.0035 11.8457V15.767H71.0051ZM60.7242 15.767C60.4393 15.767 60.1661 15.8802 59.9646 16.0816C59.7632 16.2831 59.65 16.5563 59.65 16.8412V20.5605H2.27344V11.8457C2.27985 11.4504 2.36983 11.061 2.53747 10.7029C2.70511 10.3449 2.9466 10.0264 3.24609 9.76836C3.93117 9.1677 4.81374 8.84084 5.72481 8.85039H13.4889V10.3398C13.5043 11.4926 13.973 12.593 14.7936 13.4027C15.6143 14.2125 16.7208 14.6665 17.8736 14.6665C19.0265 14.6665 20.133 14.2125 20.9536 13.4027C21.7743 12.593 22.243 11.4926 22.2584 10.3398V8.84981H31.1797V10.3398C31.1906 11.4956 31.6574 12.6003 32.4785 13.4137C33.2996 14.2271 34.4087 14.6834 35.5645 14.6834C36.7202 14.6834 37.8293 14.2271 38.6504 13.4137C39.4715 12.6003 39.9383 11.4956 39.9492 10.3398V8.84981H48.8709V10.3398C48.8818 11.4956 49.3486 12.6003 50.1697 13.4137C50.9908 14.2271 52.0999 14.6834 53.2557 14.6834C54.4115 14.6834 55.5205 14.2271 56.3416 13.4137C57.1628 12.6003 57.6295 11.4956 57.6404 10.3398V8.84981H65.4051C67.0965 8.84981 68.8564 10.0324 68.8564 11.8457V15.767H60.7242ZM51.5291 42.4662C51.0662 42.8624 50.6193 43.2758 50.1885 43.7064C49.9869 43.908 49.789 44.1132 49.5947 44.3221V42.5607C49.5986 42.4375 49.7734 42.4662 49.8199 42.4662H51.5291ZM47.4471 46.9963C45.3097 50.1058 43.9514 53.6838 43.4867 57.4283C43.0221 61.1729 43.4647 64.9743 44.7773 68.5119H5.72422C4.03301 68.5119 2.27344 67.3293 2.27344 65.5156V22.7076H59.6508V26.6982C59.6508 26.9831 59.764 27.2564 59.9654 27.4578C60.1669 27.6593 60.4401 27.7725 60.725 27.7725H68.8588V36.9162C68.1803 36.8572 67.4939 36.8275 66.7996 36.827C62.444 36.82 58.1731 38.0299 54.4684 40.3203H49.8199C49.2174 40.3186 48.6355 40.5393 48.1855 40.94C47.955 41.1428 47.7701 41.3921 47.6429 41.6715C47.5158 41.9509 47.4493 42.2541 47.4478 42.5611L47.4471 46.9963Z" fill="#30353E"/>
</svg>
