<svg width="12" height="19" viewBox="0 0 12 19" fill="none" xmlns="http://www.w3.org/2000/svg">
<g id="Group">
<path id="Vector" d="M5.43837 14.1044C5.08077 14.1044 4.79157 13.8152 4.79157 13.4576C4.79157 12.6116 4.91157 11.8808 5.15037 11.2664C5.32557 10.8032 5.60997 10.3364 6.00117 9.86479C6.28917 9.52159 6.80517 9.01999 7.55157 8.36239C8.29797 7.70359 8.78277 7.17919 9.00717 6.78799C9.23157 6.39679 9.34197 5.96959 9.34197 5.50639C9.34197 4.66759 9.01437 3.93199 8.36037 3.29719C7.70637 2.66239 6.90357 2.34559 5.95317 2.34559C5.03517 2.34559 4.26837 2.63359 3.65397 3.20839C3.20517 3.62839 2.86797 4.22119 2.64477 4.98679C2.49117 5.51239 1.97877 5.84839 1.43517 5.78359C0.746374 5.70199 0.292774 5.02039 0.489574 4.35439C0.791974 3.33079 1.29837 2.50639 2.00757 1.87999C2.99277 1.00759 4.29597 0.571991 5.91717 0.571991C7.63317 0.571991 9.00237 1.03879 10.0248 1.97359C11.0472 2.90839 11.5572 4.03759 11.5572 5.36239C11.5572 6.12919 11.3772 6.83599 11.0184 7.48159C10.6596 8.12839 9.95637 8.91439 8.91117 9.84079C8.20917 10.4636 7.74957 10.9232 7.53357 11.2184C7.31757 11.5136 7.15797 11.8532 7.05477 12.236C6.97797 12.5204 6.92517 12.938 6.89637 13.4864C6.87837 13.832 6.59157 14.1032 6.24597 14.1032H5.43837V14.1044ZM4.67157 17.2004C4.67157 16.5224 5.22117 15.9728 5.89917 15.9728C6.57717 15.9728 7.12677 16.5224 7.12677 17.2004C7.12677 17.8784 6.57717 18.428 5.89917 18.428C5.22117 18.428 4.67157 17.8784 4.67157 17.2004Z" fill="#005AFF"/>
</g>
</svg>
