<svg width="20" height="21" viewBox="0 0 20 21" fill="none" xmlns="http://www.w3.org/2000/svg">
<g id="Group">
<path id="Vector" d="M9.60384 19.5319C4.42284 19.5319 0.208008 15.3171 0.208008 10.1361C0.208008 4.9551 4.42284 0.740265 9.60384 0.740265C14.7848 0.740265 18.9997 4.9551 18.9997 10.1361C18.9997 15.3171 14.7848 19.5319 9.60384 19.5319ZM9.60384 2.11526C5.18092 2.11526 1.58301 5.71226 1.58301 10.1361C1.58301 14.5599 5.18092 18.1569 9.60384 18.1569C14.0268 18.1569 17.6247 14.559 17.6247 10.1361C17.6247 5.71318 14.0277 2.11526 9.60384 2.11526Z" fill="#545454"/>
<path id="Vector_2" d="M19.2286 20.4493C19.1383 20.4495 19.0489 20.4318 18.9655 20.3972C18.8821 20.3625 18.8064 20.3117 18.7428 20.2476L16.9094 18.4143C16.7805 18.2853 16.708 18.1104 16.708 17.928C16.708 17.7456 16.7805 17.5707 16.9094 17.4417C17.0384 17.3127 17.2133 17.2403 17.3957 17.2403C17.5781 17.2403 17.753 17.3127 17.882 17.4417L19.7154 19.275C19.8117 19.3711 19.8774 19.4936 19.904 19.6271C19.9307 19.7605 19.9171 19.8989 19.8651 20.0246C19.8131 20.1504 19.7249 20.2578 19.6118 20.3334C19.4986 20.409 19.3647 20.4493 19.2286 20.4493Z" fill="#545454"/>
</g>
</svg>
