<svg width="80" height="94" viewBox="0 0 80 94" fill="none" xmlns="http://www.w3.org/2000/svg">
<g id="Group">
<path id="Vector" d="M67.9609 27.5734L71.6328 22.9516C71.8854 22.6327 72.0037 22.2279 71.9626 21.8232C71.9214 21.4186 71.7241 21.0459 71.4125 20.7844L66.6234 16.7656C66.4633 16.632 66.2781 16.5317 66.0786 16.4706C65.8792 16.4095 65.6696 16.3889 65.4621 16.4098C65.2546 16.4308 65.0533 16.4929 64.8701 16.5927C64.687 16.6924 64.5255 16.8277 64.3953 16.9906L60.6656 21.6859C55.8208 18.6495 50.3645 16.7218 44.6875 16.0406V12.625H47.8125C48.2269 12.625 48.6243 12.4604 48.9174 12.1674C49.2104 11.8743 49.375 11.4769 49.375 11.0625V1.6875C49.375 1.2731 49.2104 0.875671 48.9174 0.582646C48.6243 0.28962 48.2269 0.125 47.8125 0.125H32.1875C31.7731 0.125 31.3757 0.28962 31.0826 0.582646C30.7896 0.875671 30.625 1.2731 30.625 1.6875V11.0625C30.625 11.4769 30.7896 11.8743 31.0826 12.1674C31.3757 12.4604 31.7731 12.625 32.1875 12.625H35.3125V16.0406C29.6354 16.7222 24.1791 18.6505 19.3344 21.6875L15.6047 16.9922C15.4746 16.8288 15.3132 16.6931 15.1299 16.5931C14.9467 16.493 14.7452 16.4305 14.5375 16.4094C14.1183 16.3718 13.7012 16.5009 13.3766 16.7688L8.5875 20.7844C8.27569 21.0461 8.07835 21.4192 8.03749 21.8243C7.99664 22.2294 8.11549 22.6344 8.36875 22.9531L12.0406 27.575C5.175 34.6156 0.9375 44.2266 0.9375 54.8125C0.9375 76.3516 18.4609 93.875 40 93.875C61.5391 93.875 79.0625 76.3516 79.0625 54.8125C79.0625 44.2266 74.8234 34.6156 67.9609 27.5734ZM65.8453 20.1906L68.2375 22.2L65.6813 25.4172C64.8993 24.7291 64.0904 24.0723 63.2562 23.4484L65.8453 20.1906ZM33.75 3.25H46.25V9.5H33.75V3.25ZM38.4375 12.625H41.5625V15.7891C41.0438 15.7687 40.5234 15.75 40 15.75C39.4766 15.75 38.9562 15.7687 38.4375 15.7891V12.625ZM14.1547 20.1906L16.7437 23.4484C15.9062 24.0703 15.1016 24.7313 14.3188 25.4172L11.7625 22.1984L14.1547 20.1906ZM40 90.75C20.1828 90.75 4.0625 74.6297 4.0625 54.8125C4.0625 34.9953 20.1828 18.875 40 18.875C59.8172 18.875 75.9375 34.9953 75.9375 54.8125C75.9375 74.6297 59.8172 90.75 40 90.75ZM40 22C21.9062 22 7.1875 36.7188 7.1875 54.8125C7.1875 72.9062 21.9062 87.625 40 87.625C58.0938 87.625 72.8125 72.9062 72.8125 54.8125C72.8125 36.7188 58.0938 22 40 22ZM40 84.5C23.6297 84.5 10.3125 71.1828 10.3125 54.8125C10.3125 38.4422 23.6297 25.125 40 25.125C56.3703 25.125 69.6875 38.4422 69.6875 54.8125C69.6875 71.1828 56.3703 84.5 40 84.5ZM40 32.9375C39.8016 32.9391 39.6053 32.9789 39.4219 33.0547C39.3562 33.0797 39.3063 33.125 39.2453 33.1578C39.1365 33.2138 39.0348 33.2825 38.9422 33.3625C38.8844 33.4172 38.8438 33.4812 38.7953 33.5422C38.7226 33.6282 38.6598 33.722 38.6078 33.8219C38.5703 33.8969 38.5516 33.975 38.5266 34.0562C38.5047 34.1281 38.4656 34.1906 38.4547 34.2687L34.4609 60.8891C34.3416 61.685 34.3953 62.4972 34.6186 63.2705C34.8418 64.0437 35.2293 64.7596 35.7545 65.3694C36.2798 65.9792 36.9304 66.4684 37.662 66.8038C38.3936 67.1391 39.189 67.3126 39.9938 67.3125H40.0063C40.8107 67.3116 41.6055 67.1374 42.3365 66.8017C43.0675 66.466 43.7176 65.9767 44.2425 65.3672C44.7674 64.7576 45.1548 64.0421 45.3783 63.2693C45.6017 62.4965 45.656 61.6847 45.5375 60.8891L41.8281 36.1547C51.3125 37.0781 58.75 45.0906 58.75 54.8125C58.75 65.1516 50.3391 73.5625 40 73.5625C29.6609 73.5625 21.25 65.1516 21.25 54.8125C21.25 54.3981 21.0854 54.0007 20.7924 53.7076C20.4993 53.4146 20.1019 53.25 19.6875 53.25C19.2731 53.25 18.8757 53.4146 18.5826 53.7076C18.2896 54.0007 18.125 54.3981 18.125 54.8125C18.125 66.875 27.9375 76.6875 40 76.6875C52.0625 76.6875 61.875 66.875 61.875 54.8125C61.875 42.75 52.0625 32.9375 40 32.9375ZM41.8766 63.3281C41.4078 63.875 40.7266 64.1875 40.0063 64.1875H39.9938C39.275 64.1875 38.5922 63.875 38.1234 63.3281C37.6531 62.7844 37.4453 62.0625 37.5531 61.3531L40 45.0312L42.4469 61.3516C42.5547 62.0625 42.3469 62.7844 41.8766 63.3281Z" fill="#30353E"/>
</g>
</svg>
