<svg width="20" height="21" viewBox="0 0 20 21" fill="none" xmlns="http://www.w3.org/2000/svg">
<g id="Mask group">
<mask id="mask0_5783_22666" style="mask-type:alpha" maskUnits="userSpaceOnUse" x="0" y="0" width="20" height="21">
<g id="Group">
<path id="Vector" d="M19.555 9.23798L18.195 7.65798C17.935 7.35798 17.725 6.79798 17.725 6.39798V4.69798C17.725 3.63798 16.855 2.76798 15.795 2.76798H14.095C13.705 2.76798 13.135 2.55798 12.835 2.29798L11.255 0.937983C10.565 0.347983 9.435 0.347983 8.735 0.937983L7.165 2.30798C6.865 2.55798 6.295 2.76798 5.905 2.76798H4.175C3.115 2.76798 2.245 3.63798 2.245 4.69798V6.40798C2.245 6.79798 2.035 7.35798 1.785 7.65798L0.435 9.24798C-0.145 9.93798 -0.145 11.058 0.435 11.748L1.785 13.338C2.035 13.638 2.245 14.198 2.245 14.588V16.298C2.245 17.358 3.115 18.228 4.175 18.228H5.905C6.295 18.228 6.865 18.438 7.165 18.698L8.745 20.058C9.435 20.648 10.565 20.648 11.265 20.058L12.845 18.698C13.145 18.438 13.705 18.228 14.105 18.228H15.805C16.865 18.228 17.735 17.358 17.735 16.298V14.598C17.735 14.208 17.945 13.638 18.205 13.338L19.565 11.758C20.145 11.068 20.145 9.92798 19.555 9.23798ZM14.155 8.60798L9.325 13.438C9.18438 13.5784 8.99375 13.6573 8.795 13.6573C8.59625 13.6573 8.40563 13.5784 8.265 13.438L5.845 11.018C5.555 10.728 5.555 10.248 5.845 9.95798C6.135 9.66798 6.615 9.66798 6.905 9.95798L8.795 11.848L13.095 7.54798C13.385 7.25798 13.865 7.25798 14.155 7.54798C14.445 7.83798 14.445 8.31798 14.155 8.60798Z" fill="black"/>
</g>
</mask>
<g mask="url(#mask0_5783_22666)">
<rect id="Rectangle 28" y="0.495483" width="20" height="20" fill="#01D18F"/>
</g>
</g>
</svg>
