<svg width="14" height="14" viewBox="0 0 14 14" fill="none" xmlns="http://www.w3.org/2000/svg">
<path fillRule="evenodd" clipRule="evenodd" d="M0.635484 13.3644C0.49488 13.2238 0.415894 13.0331 0.415894 12.8342C0.415894 12.6353 0.49488 12.4446 0.635484 12.3039L12.304 0.635433C12.4448 0.494802 12.6357 0.415875 12.8348 0.416016C13.0338 0.416156 13.2246 0.495353 13.3652 0.636183C13.5059 0.777013 13.5848 0.96794 13.5847 1.16696C13.5845 1.36599 13.5053 1.5568 13.3645 1.69743L1.69748 13.3644C1.62782 13.4343 1.54505 13.4897 1.45393 13.5275C1.36282 13.5653 1.26513 13.5848 1.16648 13.5848C1.06783 13.5848 0.970151 13.5653 0.879033 13.5275C0.787915 13.4897 0.705152 13.4343 0.635484 13.3644Z" fill="black"/>
<path fillRule="evenodd" clipRule="evenodd" d="M0.635502 0.63538C0.70517 0.565535 0.787934 0.510121 0.879051 0.472311C0.970169 0.434501 1.06785 0.415039 1.1665 0.415039C1.26515 0.415039 1.36283 0.434501 1.45395 0.472311C1.54507 0.510121 1.62783 0.565535 1.6975 0.63538L13.3645 12.3039C13.4361 12.3731 13.4933 12.4558 13.5326 12.5473C13.5719 12.6388 13.5926 12.7372 13.5934 12.8368C13.5943 12.9364 13.5753 13.0352 13.5376 13.1273C13.4999 13.2195 13.4442 13.3033 13.3738 13.3737C13.3034 13.4441 13.2196 13.4998 13.1275 13.5375C13.0353 13.5752 12.9365 13.5942 12.837 13.5933C12.7374 13.5925 12.639 13.5718 12.5474 13.5325C12.4559 13.4931 12.3732 13.436 12.304 13.3644L0.635502 1.69738C0.565657 1.62771 0.510243 1.54495 0.472433 1.45383C0.434623 1.36271 0.415161 1.26503 0.415161 1.16638C0.415161 1.06773 0.434623 0.970047 0.472433 0.878929C0.510243 0.787812 0.565657 0.705048 0.635502 0.63538Z" fill="black"/>
</svg>
