<svg width="12" height="13" viewBox="0 0 12 13" fill="none" xmlns="http://www.w3.org/2000/svg">
<mask id="path-1-inside-1_6564_13134" fill="white">
<path d="M7.09936 6.50975L11.772 1.83703C12.0761 1.53309 12.0761 1.04163 11.772 0.737725C11.4681 0.433779 10.9766 0.433779 10.6727 0.737725L5.99995 5.4104L1.32738 0.737725C1.02328 0.433779 0.532015 0.433779 0.228069 0.737725C-0.0760229 1.04167 -0.0760229 1.53309 0.228069 1.83703L4.9006 6.50975L0.228105 11.1824C-0.0759865 11.4864 -0.0759865 11.9778 0.228105 12.2817C0.300203 12.354 0.385876 12.4114 0.480204 12.4505C0.574531 12.4896 0.675653 12.5096 0.777759 12.5095C0.976745 12.5095 1.1758 12.4333 1.32741 12.2817L5.99995 7.60906L10.6727 12.2817C10.7448 12.354 10.8305 12.4114 10.9248 12.4505C11.0191 12.4895 11.1202 12.5096 11.2224 12.5095C11.4213 12.5095 11.6204 12.4333 11.772 12.2817C12.0761 11.9778 12.0761 11.4864 11.772 11.1824L7.09936 6.50975Z"/>
</mask>
<path d="M7.09936 6.50975L11.772 1.83703C12.0761 1.53309 12.0761 1.04163 11.772 0.737725C11.4681 0.433779 10.9766 0.433779 10.6727 0.737725L5.99995 5.4104L1.32738 0.737725C1.02328 0.433779 0.532015 0.433779 0.228069 0.737725C-0.0760229 1.04167 -0.0760229 1.53309 0.228069 1.83703L4.9006 6.50975L0.228105 11.1824C-0.0759865 11.4864 -0.0759865 11.9778 0.228105 12.2817C0.300203 12.354 0.385876 12.4114 0.480204 12.4505C0.574531 12.4896 0.675653 12.5096 0.777759 12.5095C0.976745 12.5095 1.1758 12.4333 1.32741 12.2817L5.99995 7.60906L10.6727 12.2817C10.7448 12.354 10.8305 12.4114 10.9248 12.4505C11.0191 12.4895 11.1202 12.5096 11.2224 12.5095C11.4213 12.5095 11.6204 12.4333 11.772 12.2817C12.0761 11.9778 12.0761 11.4864 11.772 11.1824L7.09936 6.50975Z" fill="#30353E"/>
<path d="M7.09936 6.50975L-17.6496 -18.2388L-42.3978 6.50984L-17.6495 31.2584L7.09936 6.50975ZM11.772 1.83703L-12.9723 -22.9162L-12.9769 -22.9115L11.772 1.83703ZM11.772 0.737725L-12.9767 25.4865L-12.9708 25.4924L11.772 0.737725ZM10.6727 0.737725L35.4212 25.4867L35.4229 25.485L10.6727 0.737725ZM5.99995 5.4104L-18.7491 30.1588L5.99946 54.908L30.7485 30.1593L5.99995 5.4104ZM1.32738 0.737725L26.0764 -24.0107L26.0702 -24.0169L1.32738 0.737725ZM0.228069 0.737725L24.9709 25.4924L24.9768 25.4865L0.228069 0.737725ZM0.228069 1.83703L24.9773 -22.9112L24.9709 -22.9176L0.228069 1.83703ZM4.9006 6.50975L29.6498 31.258L54.3971 6.50975L29.6498 -18.2385L4.9006 6.50975ZM0.228105 11.1824L24.9709 35.9371L24.9773 35.9307L0.228105 11.1824ZM0.228105 12.2817L25.0119 -12.4319L24.9907 -12.4532L24.9694 -12.4744L0.228105 12.2817ZM0.777759 12.5095V-22.4905H0.758543L0.739326 -22.4905L0.777759 12.5095ZM1.32741 12.2817L26.0762 37.0305L26.0765 37.0301L1.32741 12.2817ZM5.99995 7.60906L30.7485 -17.1399L5.99937 -41.8886L-18.7492 -17.1393L5.99995 7.60906ZM10.6727 12.2817L35.4531 -12.4353L35.4372 -12.4512L35.4212 -12.4672L10.6727 12.2817ZM11.2224 12.5095V-22.4905H11.2055L11.1887 -22.4905L11.2224 12.5095ZM11.772 12.2817L-12.9723 -12.4715L-12.9767 -12.467L11.772 12.2817ZM11.772 11.1824L-12.9768 35.9311L-12.9723 35.9356L11.772 11.1824ZM31.8483 31.2583L36.5209 26.5856L-12.9769 -22.9115L-17.6496 -18.2388L31.8483 31.2583ZM36.5163 26.5902C50.4938 12.6177 50.4959 -10.0425 36.5148 -24.0169L-12.9708 25.4924C-26.3438 12.1258 -26.3417 -9.55155 -12.9723 -22.9162L36.5163 26.5902ZM36.5207 -24.011C22.5493 -37.9825 -0.104108 -37.9846 -14.0775 -24.0095L35.4229 25.485C22.0573 38.8522 0.38685 38.85 -12.9767 25.4865L36.5207 -24.011ZM-14.0758 -24.0112L-18.7486 -19.3385L30.7485 30.1593L35.4212 25.4867L-14.0758 -24.0112ZM30.749 -19.338L26.0764 -24.0107L-23.4217 25.4862L-18.7491 30.1588L30.749 -19.338ZM26.0702 -24.0169C12.1024 -37.9781 -10.5451 -37.9866 -24.5207 -24.011L24.9768 25.4865C11.6091 38.8541 -10.0558 38.8456 -23.4154 25.4924L26.0702 -24.0169ZM-24.5147 -24.0169C-38.4951 -10.0433 -38.4951 12.618 -24.5147 26.5917L24.9709 -22.9176C38.343 -9.55188 38.343 12.1266 24.9709 25.4924L-24.5147 -24.0169ZM-24.5212 26.5853L-19.8486 31.258L29.6498 -18.2385L24.9773 -22.9112L-24.5212 26.5853ZM-19.8486 -18.2385L-24.5211 -13.5658L24.9773 35.9307L29.6498 31.258L-19.8486 -18.2385ZM-24.5147 -13.5722C-38.4942 0.400591 -38.4964 23.0631 -24.5132 37.0379L24.9694 -12.4744C38.3444 0.892538 38.3423 22.5722 24.9709 35.9371L-24.5147 -13.5722ZM-24.5557 36.9953C-21.2276 40.3329 -17.2729 42.9798 -12.9189 44.7841L13.8793 -19.8832C18.0447 -18.157 21.828 -15.6248 25.0119 -12.4319L-24.5557 36.9953ZM-12.9189 44.7841C-8.5649 46.5884 -3.89715 47.5147 0.816192 47.5095L0.739326 -22.4905C5.24845 -22.4954 9.71396 -21.6093 13.8793 -19.8832L-12.9189 44.7841ZM0.777759 47.5095C9.89931 47.5095 19.1105 43.9961 26.0762 37.0305L-23.4213 -12.467C-16.7589 -19.1294 -7.94582 -22.4905 0.777759 -22.4905V47.5095ZM26.0765 37.0301L30.7491 32.3574L-18.7492 -17.1393L-23.4217 -12.4666L26.0765 37.0301ZM-18.7486 32.358L-14.0759 37.0307L35.4212 -12.4672L30.7485 -17.1399L-18.7486 32.358ZM-14.1077 36.9987C-10.7804 40.3346 -6.82697 42.9803 -2.4743 44.7841L24.3239 -19.8832C28.4879 -18.1576 32.27 -15.6265 35.4531 -12.4353L-14.1077 36.9987ZM-2.4743 44.7841C1.87835 46.5878 6.54442 47.514 11.256 47.5095L11.1887 -22.4905C15.6961 -22.4948 20.1599 -21.6088 24.3239 -19.8832L-2.4743 44.7841ZM11.2224 47.5095C20.3439 47.5095 29.5551 43.9961 36.5207 37.0305L-12.9767 -12.467C-6.31431 -19.1294 2.49877 -22.4905 11.2224 -22.4905V47.5095ZM36.5163 37.0349C50.4946 23.0616 50.4946 0.402554 36.5163 -13.5708L-12.9723 35.9356C-26.3425 22.5702 -26.3425 0.89397 -12.9723 -12.4715L36.5163 37.0349ZM36.5208 -13.5662L31.8482 -18.2389L-17.6495 31.2584L-12.9768 35.9311L36.5208 -13.5662Z" fill="white" mask="url(#path-1-inside-1_6564_13134)"/>
</svg>
