<svg width="20" height="20" viewBox="0 0 20 20" fill="none" xmlns="http://www.w3.org/2000/svg">
<g id="Group">
<g id="Vector">
<mask id="path-1-inside-1_7028_22358" fill="white">
<path d="M11.8323 10.0166L19.62 2.22871C20.1268 1.72214 20.1268 0.90305 19.62 0.396534C19.1134 -0.110043 18.2943 -0.110043 17.7878 0.396534L9.99991 8.18433L2.21229 0.396534C1.70547 -0.110043 0.886691 -0.110043 0.380115 0.396534C-0.126705 0.903111 -0.126705 1.72214 0.380115 2.22871L8.16767 10.0166L0.380175 17.8044C-0.126644 18.3109 -0.126644 19.13 0.380175 19.6365C0.500338 19.7571 0.643127 19.8526 0.80034 19.9178C0.957552 19.9829 1.12609 20.0164 1.29627 20.0162C1.62791 20.0162 1.95967 19.8892 2.21236 19.6365L9.99991 11.8488L17.7878 19.6365C17.908 19.757 18.0508 19.8526 18.208 19.9177C18.3652 19.9829 18.5337 20.0163 18.7039 20.0162C19.0356 20.0162 19.3673 19.8892 19.62 19.6365C20.1268 19.13 20.1268 18.3109 19.62 17.8044L11.8323 10.0166Z"/>
</mask>
<path d="M11.8323 10.0166L19.62 2.22871C20.1268 1.72214 20.1268 0.90305 19.62 0.396534C19.1134 -0.110043 18.2943 -0.110043 17.7878 0.396534L9.99991 8.18433L2.21229 0.396534C1.70547 -0.110043 0.886691 -0.110043 0.380115 0.396534C-0.126705 0.903111 -0.126705 1.72214 0.380115 2.22871L8.16767 10.0166L0.380175 17.8044C-0.126644 18.3109 -0.126644 19.13 0.380175 19.6365C0.500338 19.7571 0.643127 19.8526 0.80034 19.9178C0.957552 19.9829 1.12609 20.0164 1.29627 20.0162C1.62791 20.0162 1.95967 19.8892 2.21236 19.6365L9.99991 11.8488L17.7878 19.6365C17.908 19.757 18.0508 19.8526 18.208 19.9177C18.3652 19.9829 18.5337 20.0163 18.7039 20.0162C19.0356 20.0162 19.3673 19.8892 19.62 19.6365C20.1268 19.13 20.1268 18.3109 19.62 17.8044L11.8323 10.0166Z" fill="#30353E"/>
<path d="M11.8323 10.0166L-12.9167 -14.732L-37.6649 10.0167L-12.9166 34.7652L11.8323 10.0166ZM19.62 2.22871L-5.12428 -22.5245L-5.12893 -22.5198L19.62 2.22871ZM19.62 0.396534L-5.12873 25.1453L-5.1228 25.1512L19.62 0.396534ZM17.7878 0.396534L42.5364 25.1455L42.538 25.1438L17.7878 0.396534ZM9.99991 8.18433L-14.7491 32.9328L9.99942 57.6819L34.7485 32.9333L9.99991 8.18433ZM2.21229 0.396534L26.9613 -24.3519L26.9551 -24.3581L2.21229 0.396534ZM0.380115 0.396534L25.1229 25.1512L25.1289 25.1453L0.380115 0.396534ZM0.380115 2.22871L25.1293 -22.5195L25.1229 -22.526L0.380115 2.22871ZM8.16767 10.0166L32.9169 34.7648L57.6642 10.0166L32.9169 -14.7317L8.16767 10.0166ZM0.380175 17.8044L25.123 42.559L25.1294 42.5526L0.380175 17.8044ZM0.380175 19.6365L25.164 -5.07706L25.1428 -5.09835L25.1215 -5.1196L0.380175 19.6365ZM1.29627 20.0162V-14.9838H1.27705L1.25783 -14.9838L1.29627 20.0162ZM2.21236 19.6365L26.9611 44.3853L26.9615 44.3849L2.21236 19.6365ZM9.99991 11.8488L34.7485 -12.9002L9.99933 -37.6489L-14.7492 -12.8996L9.99991 11.8488ZM17.7878 19.6365L42.5683 -5.08045L42.5523 -5.09642L42.5364 -5.11238L17.7878 19.6365ZM18.7039 20.0162V-14.9838H18.6871L18.6703 -14.9838L18.7039 20.0162ZM19.62 19.6365L-5.12428 -5.11664L-5.12873 -5.11219L19.62 19.6365ZM19.62 17.8044L-5.12883 42.553L-5.12428 42.5576L19.62 17.8044ZM36.5812 34.7651L44.3689 26.9773L-5.12893 -22.5198L-12.9167 -14.732L36.5812 34.7651ZM44.3643 26.9819C58.5445 12.8068 58.5466 -10.1811 44.3628 -24.3581L-5.1228 25.1512C-18.2931 11.9872 -18.291 -9.3625 -5.12428 -22.5245L44.3643 26.9819ZM44.3687 -24.3522C30.1946 -38.5263 7.21363 -38.5284 -6.9624 -24.3507L42.538 25.1438C29.3751 38.3084 8.03222 38.3062 -5.12873 25.1453L44.3687 -24.3522ZM-6.96072 -24.3524L-14.7486 -16.5646L34.7485 32.9333L42.5364 25.1455L-6.96072 -24.3524ZM34.7489 -16.5641L26.9613 -24.3519L-22.5367 25.145L-14.7491 32.9328L34.7489 -16.5641ZM26.9551 -24.3581C12.7846 -38.5219 -10.1904 -38.5304 -24.3686 -24.3522L25.1289 25.1453C11.9638 38.3103 -9.37362 38.3018 -22.5305 25.1512L26.9551 -24.3581ZM-24.3627 -24.3581C-38.5458 -10.1819 -38.5458 12.8071 -24.3627 26.9834L25.1229 -22.526C38.2924 -9.36283 38.2924 11.9881 25.1229 25.1512L-24.3627 -24.3581ZM-24.3691 26.977L-16.5816 34.7648L32.9169 -14.7317L25.1293 -22.5195L-24.3691 26.977ZM-16.5816 -14.7317L-24.369 -6.94388L25.1294 42.5526L32.9169 34.7648L-16.5816 -14.7317ZM-24.3626 -6.9503C-38.5449 7.22516 -38.547 30.2153 -24.3611 44.3927L25.1215 -5.1196C38.2937 8.04475 38.2916 29.3967 25.123 42.559L-24.3626 -6.9503ZM-24.4036 44.3502C-21.0275 47.7359 -17.0157 50.421 -12.5988 52.2514L14.1994 -12.4159C18.3019 -10.7158 22.0282 -8.22179 25.164 -5.07706L-24.4036 44.3502ZM-12.5988 52.2514C-8.18188 54.0818 -3.44671 55.0214 1.3347 55.0162L1.25783 -14.9838C5.69889 -14.9887 10.097 -14.1159 14.1994 -12.4159L-12.5988 52.2514ZM1.29627 55.0162C10.5505 55.0162 19.8944 51.452 26.9611 44.3853L-22.5364 -5.11219C-15.975 -11.6735 -7.29465 -14.9838 1.29627 -14.9838V55.0162ZM26.9615 44.3849L34.749 36.5971L-14.7492 -12.8996L-22.5368 -5.1118L26.9615 44.3849ZM-14.7486 36.5977L-6.96072 44.3855L42.5364 -5.11238L34.7485 -12.9002L-14.7486 36.5977ZM-6.99261 44.3535C-3.61724 47.7376 0.393353 50.4216 4.8089 52.2514L31.6071 -12.4159C35.7082 -10.7164 39.4332 -8.22351 42.5683 -5.08045L-6.99261 44.3535ZM4.8089 52.2514C9.22444 54.0812 13.9579 55.0208 18.7376 55.0162L18.6703 -14.9838C23.1096 -14.9881 27.506 -14.1154 31.6071 -12.4159L4.8089 52.2514ZM18.7039 55.0162C27.9581 55.0162 37.302 51.452 44.3687 44.3853L-5.12873 -5.11219C1.43262 -11.6735 10.113 -14.9838 18.7039 -14.9838V55.0162ZM44.3643 44.3897C58.5453 30.2138 58.5453 7.22713 44.3643 -6.94882L-5.12428 42.5576C-18.2918 29.3948 -18.2918 8.04615 -5.12428 -5.11664L44.3643 44.3897ZM44.3688 -6.94427L36.5811 -14.7321L-12.9166 34.7652L-5.12883 42.553L44.3688 -6.94427Z" fill="white" mask="url(#path-1-inside-1_7028_22358)"/>
</g>
</g>
</svg>
