<svg width="37" height="28" viewBox="0 0 37 28" fill="none" xmlns="http://www.w3.org/2000/svg">
<g id="Group">
<path id="Vector" d="M9.13882 25.1149V26.8521C9.13882 27.0825 9.23021 27.3037 9.39341 27.4661C9.55584 27.6293 9.77741 27.7207 10.0074 27.7207H27.3788C27.6092 27.7207 27.8304 27.6293 27.9932 27.4661C28.156 27.3037 28.2474 27.0821 28.2474 26.8517V25.1149C28.2474 22.5809 27.2408 20.1507 25.449 18.359C23.6573 16.5672 21.2271 15.5606 18.6931 15.5606C16.1592 15.5606 13.729 16.5672 11.9372 18.359C10.1454 20.1507 9.13882 22.5809 9.13882 25.1149ZM1.32173 27.7207H7.55098C7.45201 27.4418 7.40149 27.148 7.4016 26.8521V25.1149C7.4016 23.1311 7.92384 21.2012 8.89152 19.5089C8.14495 19.1948 7.34295 19.0336 6.533 19.035C3.17568 19.035 0.453125 21.7568 0.453125 25.1149V26.8521C0.453227 27.0824 0.544773 27.3033 0.707647 27.4662C0.87052 27.6291 1.09139 27.7206 1.32173 27.7207ZM30.8532 19.035C30.0165 19.035 29.2201 19.2032 28.4951 19.5089C29.4713 21.216 29.9847 23.1484 29.9846 25.1149V26.8521C29.9846 27.1508 29.9332 27.4442 29.8349 27.7207H36.0645C36.2948 27.7206 36.5157 27.6291 36.6786 27.4662C36.8415 27.3033 36.933 27.0824 36.9331 26.8521V25.1149C36.9331 21.7568 34.2109 19.035 30.8532 19.035Z" fill="#525966"/>
<path id="Vector_2" d="M9.56843 16.0618C11.2808 14.3825 11.3077 11.633 9.62846 9.92062C7.9492 8.20821 5.19971 8.18133 3.48731 9.86059C1.7749 11.5398 1.74803 14.2893 3.42728 16.0017C5.10654 17.7141 7.85602 17.741 9.56843 16.0618Z" fill="#525966"/>
<path id="Vector_3" d="M33.8935 16.0709C35.606 14.3915 35.6329 11.6417 33.9535 9.92919C32.2741 8.21663 29.5244 8.18975 27.8118 9.86916C26.0992 11.5486 26.0724 14.2983 27.7518 16.0109C29.4312 17.7234 32.1809 17.7503 33.8935 16.0709Z" fill="#525966"/>
<path id="Vector_4" d="M19.6627 13.7433C22.9778 13.2094 25.2324 10.0891 24.6984 6.77402C24.1644 3.45893 21.0442 1.20438 17.7291 1.73834C14.414 2.27229 12.1594 5.39257 12.6934 8.70766C13.2273 12.0228 16.3476 14.2773 19.6627 13.7433Z" fill="#525966"/>
</g>
</svg>
