<svg width="24" height="24" viewBox="0 0 24 24" fill="none" xmlns="http://www.w3.org/2000/svg">
<mask id="mask0_11451_47291" style="mask-type:alpha" maskUnits="userSpaceOnUse" x="0" y="-1" width="24" height="26">
<path d="M23.4675 10.4877L21.8354 8.59163C21.5233 8.2316 21.2713 7.55956 21.2713 7.07953V5.03941C21.2713 3.76733 20.2273 2.72326 18.9552 2.72326H16.9151C16.447 2.72326 15.763 2.47125 15.403 2.15923L13.5068 0.527127C12.6788 -0.180917 11.3227 -0.180917 10.4827 0.527127L8.59853 2.17123C8.23851 2.47125 7.55447 2.72326 7.08644 2.72326H5.01031C3.73823 2.72326 2.69417 3.76733 2.69417 5.03941V7.09153C2.69417 7.55956 2.44215 8.2316 2.14213 8.59163L0.522032 10.4997C-0.174011 11.3278 -0.174011 12.6719 0.522032 13.4999L2.14213 15.408C2.44215 15.7681 2.69417 16.4401 2.69417 16.9081V18.9603C2.69417 20.2323 3.73823 21.2764 5.01031 21.2764H7.08644C7.55447 21.2764 8.23851 21.5284 8.59853 21.8404L10.4947 23.4725C11.3227 24.1806 12.6788 24.1806 13.5188 23.4725L15.415 21.8404C15.775 21.5284 16.447 21.2764 16.9271 21.2764H18.9672C20.2393 21.2764 21.2833 20.2323 21.2833 18.9603V16.9201C21.2833 16.4521 21.5353 15.7681 21.8474 15.408L23.4795 13.5119C24.1755 12.6839 24.1755 11.3158 23.4675 10.4877ZM16.9871 9.7317L11.1907 15.5281C11.0219 15.6966 10.7932 15.7913 10.5547 15.7913C10.3161 15.7913 10.0874 15.6966 9.91862 15.5281L7.01444 12.6239C6.66641 12.2759 6.66641 11.6998 7.01444 11.3518C7.36246 11.0038 7.93849 11.0038 8.28651 11.3518L10.5547 13.6199L15.715 8.45962C16.063 8.1116 16.639 8.1116 16.9871 8.45962C17.3351 8.80764 17.3351 9.38368 16.9871 9.7317Z" fill="black"/>
</mask>
<g mask="url(#mask0_11451_47291)">
<rect y="-0.00390625" width="24.0015" height="24.0015" fill="#01D18F"/>
</g>
</svg>
